<svg xmlns="http://www.w3.org/2000/svg" xmlns:xlink="http://www.w3.org/1999/xlink" width="1080" zoomAndPan="magnify" viewBox="0 0 810 809.999993" height="1080" preserveAspectRatio="xMidYMid meet" version="1.0"><defs><g/><clipPath id="id1"><path d="M 102 62 L 743 62 L 743 574 L 102 574 Z M 102 62 " clip-rule="nonzero"/></clipPath><clipPath id="id2"><path d="M 568.351562 508.636719 C 540.523438 509.507812 514.148438 503.996094 490.375 493.554688 C 470.375 484.855469 446.894531 492.105469 435.589844 510.957031 C 412.402344 548.367188 370.949219 573.601562 323.699219 573.601562 C 292.972656 573.601562 264.566406 562.871094 242.246094 545.179688 C 206.300781 516.464844 188.90625 470.355469 194.707031 424.53125 L 200.503906 379.867188 C 201.082031 374.359375 197.3125 369.425781 191.804688 368.847656 C 141.660156 363.625 102.523438 321.574219 102.523438 269.949219 C 102.523438 225.867188 131.511719 188.164062 171.226562 175.40625 C 175.285156 174.246094 178.472656 170.765625 179.34375 166.703125 C 193.835938 106.960938 247.460938 62.878906 311.523438 62.878906 C 360.222656 62.878906 402.835938 88.398438 426.894531 126.972656 C 443.707031 153.945312 476.171875 166.703125 506.320312 156.84375 C 523.710938 151.042969 542.554688 148.144531 561.976562 148.144531 C 660.53125 148.144531 740.539062 227.316406 741.988281 325.34375 C 744.015625 423.371094 666.039062 505.445312 568.351562 508.636719 Z M 568.351562 508.636719 " clip-rule="nonzero"/></clipPath><linearGradient x1="0.00000316894" gradientTransform="matrix(2.898742, 0, 0, -2.900187, 102.525279, 594.191845)" y1="95.099998" x2="220.991477" gradientUnits="userSpaceOnUse" y2="95.099998" id="id3"><stop stop-opacity="1" stop-color="rgb(21.998596%, 21.598816%, 22.399902%)" offset="0"/><stop stop-opacity="1" stop-color="rgb(22.290039%, 21.548462%, 22.322083%)" offset="0.00390625"/><stop stop-opacity="1" stop-color="rgb(22.581482%, 21.498108%, 22.245789%)" offset="0.0078125"/><stop stop-opacity="1" stop-color="rgb(22.872925%, 21.446228%, 22.167969%)" offset="0.0117187"/><stop stop-opacity="1" stop-color="rgb(23.164368%, 21.395874%, 22.091675%)" offset="0.015625"/><stop stop-opacity="1" stop-color="rgb(23.455811%, 21.343994%, 22.013855%)" offset="0.0195312"/><stop stop-opacity="1" stop-color="rgb(23.747253%, 21.29364%, 21.937561%)" offset="0.0234375"/><stop stop-opacity="1" stop-color="rgb(24.038696%, 21.243286%, 21.859741%)" offset="0.0273438"/><stop stop-opacity="1" stop-color="rgb(24.330139%, 21.192932%, 21.783447%)" offset="0.03125"/><stop stop-opacity="1" stop-color="rgb(24.621582%, 21.141052%, 21.705627%)" offset="0.0351562"/><stop stop-opacity="1" stop-color="rgb(24.913025%, 21.090698%, 21.629333%)" offset="0.0390625"/><stop stop-opacity="1" stop-color="rgb(25.202942%, 21.040344%, 21.551514%)" offset="0.0429688"/><stop stop-opacity="1" stop-color="rgb(25.494385%, 20.98999%, 21.47522%)" offset="0.046875"/><stop stop-opacity="1" stop-color="rgb(25.785828%, 20.93811%, 21.3974%)" offset="0.0507812"/><stop stop-opacity="1" stop-color="rgb(26.077271%, 20.887756%, 21.321106%)" offset="0.0546875"/><stop stop-opacity="1" stop-color="rgb(26.368713%, 20.835876%, 21.243286%)" offset="0.0585937"/><stop stop-opacity="1" stop-color="rgb(26.660156%, 20.785522%, 21.166992%)" offset="0.0625"/><stop stop-opacity="1" stop-color="rgb(26.951599%, 20.735168%, 21.089172%)" offset="0.0664062"/><stop stop-opacity="1" stop-color="rgb(27.243042%, 20.684814%, 21.012878%)" offset="0.0703125"/><stop stop-opacity="1" stop-color="rgb(27.534485%, 20.632935%, 20.935059%)" offset="0.0742187"/><stop stop-opacity="1" stop-color="rgb(27.825928%, 20.582581%, 20.858765%)" offset="0.078125"/><stop stop-opacity="1" stop-color="rgb(28.115845%, 20.530701%, 20.780945%)" offset="0.0820312"/><stop stop-opacity="1" stop-color="rgb(28.407288%, 20.480347%, 20.704651%)" offset="0.0859375"/><stop stop-opacity="1" stop-color="rgb(28.69873%, 20.429993%, 20.626831%)" offset="0.0898437"/><stop stop-opacity="1" stop-color="rgb(28.990173%, 20.379639%, 20.550537%)" offset="0.09375"/><stop stop-opacity="1" stop-color="rgb(29.281616%, 20.327759%, 20.472717%)" offset="0.0976562"/><stop stop-opacity="1" stop-color="rgb(29.573059%, 20.277405%, 20.396423%)" offset="0.101562"/><stop stop-opacity="1" stop-color="rgb(29.864502%, 20.227051%, 20.318604%)" offset="0.105469"/><stop stop-opacity="1" stop-color="rgb(30.155945%, 20.176697%, 20.24231%)" offset="0.109375"/><stop stop-opacity="1" stop-color="rgb(30.447388%, 20.124817%, 20.16449%)" offset="0.113281"/><stop stop-opacity="1" stop-color="rgb(30.738831%, 20.074463%, 20.088196%)" offset="0.117187"/><stop stop-opacity="1" stop-color="rgb(31.030273%, 20.022583%, 20.010376%)" offset="0.121094"/><stop stop-opacity="1" stop-color="rgb(31.321716%, 19.972229%, 19.934082%)" offset="0.125"/><stop stop-opacity="1" stop-color="rgb(31.611633%, 19.921875%, 19.856262%)" offset="0.128906"/><stop stop-opacity="1" stop-color="rgb(31.903076%, 19.871521%, 19.779968%)" offset="0.132812"/><stop stop-opacity="1" stop-color="rgb(32.194519%, 19.819641%, 19.702148%)" offset="0.136719"/><stop stop-opacity="1" stop-color="rgb(32.485962%, 19.769287%, 19.625854%)" offset="0.140625"/><stop stop-opacity="1" stop-color="rgb(32.777405%, 19.717407%, 19.548035%)" offset="0.144531"/><stop stop-opacity="1" stop-color="rgb(33.068848%, 19.667053%, 19.471741%)" offset="0.148438"/><stop stop-opacity="1" stop-color="rgb(33.360291%, 19.616699%, 19.393921%)" offset="0.152344"/><stop stop-opacity="1" stop-color="rgb(33.651733%, 19.566345%, 19.317627%)" offset="0.15625"/><stop stop-opacity="1" stop-color="rgb(33.943176%, 19.514465%, 19.239807%)" offset="0.160156"/><stop stop-opacity="1" stop-color="rgb(34.234619%, 19.464111%, 19.163513%)" offset="0.164062"/><stop stop-opacity="1" stop-color="rgb(34.526062%, 19.412231%, 19.085693%)" offset="0.167969"/><stop stop-opacity="1" stop-color="rgb(34.817505%, 19.361877%, 19.009399%)" offset="0.171875"/><stop stop-opacity="1" stop-color="rgb(35.107422%, 19.311523%, 18.93158%)" offset="0.175781"/><stop stop-opacity="1" stop-color="rgb(35.398865%, 19.261169%, 18.855286%)" offset="0.179688"/><stop stop-opacity="1" stop-color="rgb(35.690308%, 19.20929%, 18.777466%)" offset="0.183594"/><stop stop-opacity="1" stop-color="rgb(35.98175%, 19.158936%, 18.701172%)" offset="0.1875"/><stop stop-opacity="1" stop-color="rgb(36.273193%, 19.108582%, 18.623352%)" offset="0.191406"/><stop stop-opacity="1" stop-color="rgb(36.564636%, 19.058228%, 18.547058%)" offset="0.195312"/><stop stop-opacity="1" stop-color="rgb(36.856079%, 19.006348%, 18.469238%)" offset="0.199219"/><stop stop-opacity="1" stop-color="rgb(37.147522%, 18.955994%, 18.392944%)" offset="0.203125"/><stop stop-opacity="1" stop-color="rgb(37.438965%, 18.904114%, 18.31665%)" offset="0.207031"/><stop stop-opacity="1" stop-color="rgb(37.730408%, 18.85376%, 18.240356%)" offset="0.210938"/><stop stop-opacity="1" stop-color="rgb(38.020325%, 18.803406%, 18.162537%)" offset="0.214844"/><stop stop-opacity="1" stop-color="rgb(38.311768%, 18.753052%, 18.086243%)" offset="0.21875"/><stop stop-opacity="1" stop-color="rgb(38.60321%, 18.701172%, 18.008423%)" offset="0.222656"/><stop stop-opacity="1" stop-color="rgb(38.894653%, 18.650818%, 17.932129%)" offset="0.226562"/><stop stop-opacity="1" stop-color="rgb(39.186096%, 18.598938%, 17.854309%)" offset="0.230469"/><stop stop-opacity="1" stop-color="rgb(39.477539%, 18.548584%, 17.778015%)" offset="0.234375"/><stop stop-opacity="1" stop-color="rgb(39.768982%, 18.49823%, 17.700195%)" offset="0.238281"/><stop stop-opacity="1" stop-color="rgb(40.060425%, 18.447876%, 17.623901%)" offset="0.242188"/><stop stop-opacity="1" stop-color="rgb(40.351868%, 18.395996%, 17.546082%)" offset="0.246094"/><stop stop-opacity="1" stop-color="rgb(40.643311%, 18.345642%, 17.469788%)" offset="0.25"/><stop stop-opacity="1" stop-color="rgb(40.934753%, 18.295288%, 17.391968%)" offset="0.253906"/><stop stop-opacity="1" stop-color="rgb(41.226196%, 18.244934%, 17.315674%)" offset="0.257812"/><stop stop-opacity="1" stop-color="rgb(41.516113%, 18.193054%, 17.237854%)" offset="0.261719"/><stop stop-opacity="1" stop-color="rgb(41.807556%, 18.1427%, 17.16156%)" offset="0.265625"/><stop stop-opacity="1" stop-color="rgb(42.098999%, 18.09082%, 17.08374%)" offset="0.269531"/><stop stop-opacity="1" stop-color="rgb(42.390442%, 18.040466%, 17.007446%)" offset="0.273437"/><stop stop-opacity="1" stop-color="rgb(42.681885%, 17.990112%, 16.929626%)" offset="0.277344"/><stop stop-opacity="1" stop-color="rgb(42.973328%, 17.939758%, 16.853333%)" offset="0.28125"/><stop stop-opacity="1" stop-color="rgb(43.264771%, 17.887878%, 16.775513%)" offset="0.285156"/><stop stop-opacity="1" stop-color="rgb(43.556213%, 17.837524%, 16.699219%)" offset="0.289062"/><stop stop-opacity="1" stop-color="rgb(43.847656%, 17.785645%, 16.621399%)" offset="0.292969"/><stop stop-opacity="1" stop-color="rgb(44.139099%, 17.735291%, 16.545105%)" offset="0.296875"/><stop stop-opacity="1" stop-color="rgb(44.430542%, 17.684937%, 16.467285%)" offset="0.300781"/><stop stop-opacity="1" stop-color="rgb(44.721985%, 17.634583%, 16.390991%)" offset="0.304688"/><stop stop-opacity="1" stop-color="rgb(45.011902%, 17.582703%, 16.313171%)" offset="0.308594"/><stop stop-opacity="1" stop-color="rgb(45.303345%, 17.532349%, 16.236877%)" offset="0.3125"/><stop stop-opacity="1" stop-color="rgb(45.594788%, 17.481995%, 16.159058%)" offset="0.316406"/><stop stop-opacity="1" stop-color="rgb(45.88623%, 17.431641%, 16.082764%)" offset="0.320312"/><stop stop-opacity="1" stop-color="rgb(46.177673%, 17.379761%, 16.004944%)" offset="0.324219"/><stop stop-opacity="1" stop-color="rgb(46.469116%, 17.329407%, 15.92865%)" offset="0.328125"/><stop stop-opacity="1" stop-color="rgb(46.760559%, 17.277527%, 15.85083%)" offset="0.332031"/><stop stop-opacity="1" stop-color="rgb(47.052002%, 17.227173%, 15.774536%)" offset="0.335938"/><stop stop-opacity="1" stop-color="rgb(47.343445%, 17.176819%, 15.696716%)" offset="0.339844"/><stop stop-opacity="1" stop-color="rgb(47.634888%, 17.126465%, 15.620422%)" offset="0.34375"/><stop stop-opacity="1" stop-color="rgb(47.924805%, 17.074585%, 15.542603%)" offset="0.347656"/><stop stop-opacity="1" stop-color="rgb(48.216248%, 17.024231%, 15.466309%)" offset="0.351562"/><stop stop-opacity="1" stop-color="rgb(48.50769%, 16.972351%, 15.388489%)" offset="0.355469"/><stop stop-opacity="1" stop-color="rgb(48.799133%, 16.921997%, 15.312195%)" offset="0.359375"/><stop stop-opacity="1" stop-color="rgb(49.090576%, 16.871643%, 15.234375%)" offset="0.363281"/><stop stop-opacity="1" stop-color="rgb(49.382019%, 16.821289%, 15.158081%)" offset="0.367187"/><stop stop-opacity="1" stop-color="rgb(49.673462%, 16.769409%, 15.080261%)" offset="0.371094"/><stop stop-opacity="1" stop-color="rgb(49.964905%, 16.719055%, 15.003967%)" offset="0.375"/><stop stop-opacity="1" stop-color="rgb(50.256348%, 16.668701%, 14.926147%)" offset="0.378906"/><stop stop-opacity="1" stop-color="rgb(50.547791%, 16.618347%, 14.849854%)" offset="0.382813"/><stop stop-opacity="1" stop-color="rgb(50.839233%, 16.566467%, 14.772034%)" offset="0.386719"/><stop stop-opacity="1" stop-color="rgb(51.130676%, 16.516113%, 14.69574%)" offset="0.390625"/><stop stop-opacity="1" stop-color="rgb(51.420593%, 16.464233%, 14.61792%)" offset="0.394531"/><stop stop-opacity="1" stop-color="rgb(51.712036%, 16.413879%, 14.541626%)" offset="0.398438"/><stop stop-opacity="1" stop-color="rgb(52.003479%, 16.363525%, 14.463806%)" offset="0.402344"/><stop stop-opacity="1" stop-color="rgb(52.294922%, 16.313171%, 14.387512%)" offset="0.40625"/><stop stop-opacity="1" stop-color="rgb(52.586365%, 16.261292%, 14.309692%)" offset="0.410156"/><stop stop-opacity="1" stop-color="rgb(52.877808%, 16.210938%, 14.233398%)" offset="0.414062"/><stop stop-opacity="1" stop-color="rgb(53.16925%, 16.159058%, 14.155579%)" offset="0.417969"/><stop stop-opacity="1" stop-color="rgb(53.460693%, 16.108704%, 14.079285%)" offset="0.421875"/><stop stop-opacity="1" stop-color="rgb(53.752136%, 16.05835%, 14.001465%)" offset="0.425781"/><stop stop-opacity="1" stop-color="rgb(54.043579%, 16.007996%, 13.925171%)" offset="0.429688"/><stop stop-opacity="1" stop-color="rgb(54.333496%, 15.956116%, 13.848877%)" offset="0.433594"/><stop stop-opacity="1" stop-color="rgb(54.624939%, 15.905762%, 13.772583%)" offset="0.4375"/><stop stop-opacity="1" stop-color="rgb(54.916382%, 15.855408%, 13.694763%)" offset="0.441406"/><stop stop-opacity="1" stop-color="rgb(55.207825%, 15.805054%, 13.618469%)" offset="0.445312"/><stop stop-opacity="1" stop-color="rgb(55.499268%, 15.753174%, 13.540649%)" offset="0.449219"/><stop stop-opacity="1" stop-color="rgb(55.79071%, 15.70282%, 13.464355%)" offset="0.453125"/><stop stop-opacity="1" stop-color="rgb(56.082153%, 15.65094%, 13.386536%)" offset="0.457031"/><stop stop-opacity="1" stop-color="rgb(56.373596%, 15.600586%, 13.310242%)" offset="0.460938"/><stop stop-opacity="1" stop-color="rgb(56.665039%, 15.550232%, 13.232422%)" offset="0.464844"/><stop stop-opacity="1" stop-color="rgb(56.956482%, 15.499878%, 13.156128%)" offset="0.46875"/><stop stop-opacity="1" stop-color="rgb(57.247925%, 15.447998%, 13.078308%)" offset="0.472656"/><stop stop-opacity="1" stop-color="rgb(57.539368%, 15.397644%, 13.002014%)" offset="0.476563"/><stop stop-opacity="1" stop-color="rgb(57.829285%, 15.345764%, 12.924194%)" offset="0.480469"/><stop stop-opacity="1" stop-color="rgb(58.120728%, 15.29541%, 12.8479%)" offset="0.484375"/><stop stop-opacity="1" stop-color="rgb(58.41217%, 15.245056%, 12.770081%)" offset="0.488281"/><stop stop-opacity="1" stop-color="rgb(58.703613%, 15.194702%, 12.693787%)" offset="0.492188"/><stop stop-opacity="1" stop-color="rgb(58.995056%, 15.142822%, 12.615967%)" offset="0.496094"/><stop stop-opacity="1" stop-color="rgb(59.286499%, 15.092468%, 12.539673%)" offset="0.5"/><stop stop-opacity="1" stop-color="rgb(59.577942%, 15.042114%, 12.461853%)" offset="0.503906"/><stop stop-opacity="1" stop-color="rgb(59.869385%, 14.99176%, 12.385559%)" offset="0.507812"/><stop stop-opacity="1" stop-color="rgb(60.160828%, 14.93988%, 12.307739%)" offset="0.511719"/><stop stop-opacity="1" stop-color="rgb(60.452271%, 14.889526%, 12.231445%)" offset="0.515625"/><stop stop-opacity="1" stop-color="rgb(60.743713%, 14.837646%, 12.153625%)" offset="0.519531"/><stop stop-opacity="1" stop-color="rgb(61.035156%, 14.787292%, 12.077332%)" offset="0.523438"/><stop stop-opacity="1" stop-color="rgb(61.325073%, 14.736938%, 11.999512%)" offset="0.527344"/><stop stop-opacity="1" stop-color="rgb(61.616516%, 14.686584%, 11.923218%)" offset="0.53125"/><stop stop-opacity="1" stop-color="rgb(61.907959%, 14.634705%, 11.845398%)" offset="0.535156"/><stop stop-opacity="1" stop-color="rgb(62.199402%, 14.584351%, 11.769104%)" offset="0.539062"/><stop stop-opacity="1" stop-color="rgb(62.490845%, 14.532471%, 11.691284%)" offset="0.542969"/><stop stop-opacity="1" stop-color="rgb(62.782288%, 14.482117%, 11.61499%)" offset="0.546875"/><stop stop-opacity="1" stop-color="rgb(63.07373%, 14.431763%, 11.53717%)" offset="0.550781"/><stop stop-opacity="1" stop-color="rgb(63.365173%, 14.381409%, 11.460876%)" offset="0.554688"/><stop stop-opacity="1" stop-color="rgb(63.656616%, 14.329529%, 11.383057%)" offset="0.558594"/><stop stop-opacity="1" stop-color="rgb(63.948059%, 14.279175%, 11.306763%)" offset="0.5625"/><stop stop-opacity="1" stop-color="rgb(64.237976%, 14.228821%, 11.228943%)" offset="0.566406"/><stop stop-opacity="1" stop-color="rgb(64.529419%, 14.178467%, 11.152649%)" offset="0.570312"/><stop stop-opacity="1" stop-color="rgb(64.820862%, 14.126587%, 11.074829%)" offset="0.574219"/><stop stop-opacity="1" stop-color="rgb(65.112305%, 14.076233%, 10.998535%)" offset="0.578125"/><stop stop-opacity="1" stop-color="rgb(65.403748%, 14.024353%, 10.920715%)" offset="0.582031"/><stop stop-opacity="1" stop-color="rgb(65.69519%, 13.973999%, 10.844421%)" offset="0.585938"/><stop stop-opacity="1" stop-color="rgb(65.986633%, 13.923645%, 10.766602%)" offset="0.589844"/><stop stop-opacity="1" stop-color="rgb(66.278076%, 13.873291%, 10.690308%)" offset="0.59375"/><stop stop-opacity="1" stop-color="rgb(66.569519%, 13.821411%, 10.612488%)" offset="0.597656"/><stop stop-opacity="1" stop-color="rgb(66.860962%, 13.771057%, 10.536194%)" offset="0.601562"/><stop stop-opacity="1" stop-color="rgb(67.152405%, 13.719177%, 10.458374%)" offset="0.605469"/><stop stop-opacity="1" stop-color="rgb(67.443848%, 13.668823%, 10.38208%)" offset="0.609375"/><stop stop-opacity="1" stop-color="rgb(67.733765%, 13.618469%, 10.30426%)" offset="0.613281"/><stop stop-opacity="1" stop-color="rgb(68.025208%, 13.568115%, 10.227966%)" offset="0.617188"/><stop stop-opacity="1" stop-color="rgb(68.31665%, 13.516235%, 10.150146%)" offset="0.621094"/><stop stop-opacity="1" stop-color="rgb(68.608093%, 13.465881%, 10.073853%)" offset="0.625"/><stop stop-opacity="1" stop-color="rgb(68.899536%, 13.415527%, 9.996033%)" offset="0.628906"/><stop stop-opacity="1" stop-color="rgb(69.190979%, 13.365173%, 9.919739%)" offset="0.632812"/><stop stop-opacity="1" stop-color="rgb(69.482422%, 13.313293%, 9.841919%)" offset="0.636719"/><stop stop-opacity="1" stop-color="rgb(69.773865%, 13.262939%, 9.765625%)" offset="0.640625"/><stop stop-opacity="1" stop-color="rgb(70.065308%, 13.21106%, 9.687805%)" offset="0.644531"/><stop stop-opacity="1" stop-color="rgb(70.35675%, 13.160706%, 9.611511%)" offset="0.648438"/><stop stop-opacity="1" stop-color="rgb(70.648193%, 13.110352%, 9.533691%)" offset="0.652344"/><stop stop-opacity="1" stop-color="rgb(70.939636%, 13.059998%, 9.457397%)" offset="0.65625"/><stop stop-opacity="1" stop-color="rgb(71.229553%, 13.008118%, 9.381104%)" offset="0.660156"/><stop stop-opacity="1" stop-color="rgb(71.520996%, 12.957764%, 9.30481%)" offset="0.664062"/><stop stop-opacity="1" stop-color="rgb(71.812439%, 12.905884%, 9.22699%)" offset="0.667969"/><stop stop-opacity="1" stop-color="rgb(72.103882%, 12.85553%, 9.150696%)" offset="0.671875"/><stop stop-opacity="1" stop-color="rgb(72.395325%, 12.805176%, 9.072876%)" offset="0.675781"/><stop stop-opacity="1" stop-color="rgb(72.686768%, 12.754822%, 8.996582%)" offset="0.679688"/><stop stop-opacity="1" stop-color="rgb(72.97821%, 12.702942%, 8.918762%)" offset="0.683594"/><stop stop-opacity="1" stop-color="rgb(73.269653%, 12.652588%, 8.842468%)" offset="0.6875"/><stop stop-opacity="1" stop-color="rgb(73.561096%, 12.600708%, 8.764648%)" offset="0.691406"/><stop stop-opacity="1" stop-color="rgb(73.852539%, 12.550354%, 8.688354%)" offset="0.695312"/><stop stop-opacity="1" stop-color="rgb(74.142456%, 12.5%, 8.610535%)" offset="0.699219"/><stop stop-opacity="1" stop-color="rgb(74.433899%, 12.449646%, 8.534241%)" offset="0.703125"/><stop stop-opacity="1" stop-color="rgb(74.725342%, 12.397766%, 8.456421%)" offset="0.707031"/><stop stop-opacity="1" stop-color="rgb(75.016785%, 12.347412%, 8.380127%)" offset="0.710938"/><stop stop-opacity="1" stop-color="rgb(75.308228%, 12.297058%, 8.302307%)" offset="0.714844"/><stop stop-opacity="1" stop-color="rgb(75.59967%, 12.246704%, 8.226013%)" offset="0.71875"/><stop stop-opacity="1" stop-color="rgb(75.891113%, 12.194824%, 8.148193%)" offset="0.722656"/><stop stop-opacity="1" stop-color="rgb(76.182556%, 12.14447%, 8.071899%)" offset="0.726562"/><stop stop-opacity="1" stop-color="rgb(76.473999%, 12.09259%, 7.99408%)" offset="0.730469"/><stop stop-opacity="1" stop-color="rgb(76.765442%, 12.042236%, 7.917786%)" offset="0.734375"/><stop stop-opacity="1" stop-color="rgb(77.056885%, 11.991882%, 7.839966%)" offset="0.738281"/><stop stop-opacity="1" stop-color="rgb(77.348328%, 11.941528%, 7.763672%)" offset="0.742188"/><stop stop-opacity="1" stop-color="rgb(77.638245%, 11.889648%, 7.685852%)" offset="0.746094"/><stop stop-opacity="1" stop-color="rgb(77.929688%, 11.839294%, 7.609558%)" offset="0.75"/><stop stop-opacity="1" stop-color="rgb(78.22113%, 11.787415%, 7.531738%)" offset="0.753906"/><stop stop-opacity="1" stop-color="rgb(78.512573%, 11.737061%, 7.455444%)" offset="0.757812"/><stop stop-opacity="1" stop-color="rgb(78.804016%, 11.686707%, 7.377625%)" offset="0.761719"/><stop stop-opacity="1" stop-color="rgb(79.095459%, 11.636353%, 7.301331%)" offset="0.765625"/><stop stop-opacity="1" stop-color="rgb(79.386902%, 11.584473%, 7.223511%)" offset="0.769531"/><stop stop-opacity="1" stop-color="rgb(79.678345%, 11.534119%, 7.147217%)" offset="0.773438"/><stop stop-opacity="1" stop-color="rgb(79.969788%, 11.483765%, 7.069397%)" offset="0.777344"/><stop stop-opacity="1" stop-color="rgb(80.26123%, 11.433411%, 6.993103%)" offset="0.78125"/><stop stop-opacity="1" stop-color="rgb(80.552673%, 11.381531%, 6.915283%)" offset="0.785156"/><stop stop-opacity="1" stop-color="rgb(80.844116%, 11.331177%, 6.838989%)" offset="0.789062"/><stop stop-opacity="1" stop-color="rgb(81.134033%, 11.279297%, 6.761169%)" offset="0.792969"/><stop stop-opacity="1" stop-color="rgb(81.425476%, 11.228943%, 6.684875%)" offset="0.796875"/><stop stop-opacity="1" stop-color="rgb(81.716919%, 11.178589%, 6.607056%)" offset="0.800781"/><stop stop-opacity="1" stop-color="rgb(82.008362%, 11.128235%, 6.530762%)" offset="0.804688"/><stop stop-opacity="1" stop-color="rgb(82.299805%, 11.076355%, 6.452942%)" offset="0.808594"/><stop stop-opacity="1" stop-color="rgb(82.591248%, 11.026001%, 6.376648%)" offset="0.8125"/><stop stop-opacity="1" stop-color="rgb(82.88269%, 10.974121%, 6.298828%)" offset="0.816406"/><stop stop-opacity="1" stop-color="rgb(83.174133%, 10.923767%, 6.222534%)" offset="0.820312"/><stop stop-opacity="1" stop-color="rgb(83.465576%, 10.873413%, 6.144714%)" offset="0.824219"/><stop stop-opacity="1" stop-color="rgb(83.757019%, 10.823059%, 6.06842%)" offset="0.828125"/><stop stop-opacity="1" stop-color="rgb(84.046936%, 10.771179%, 5.990601%)" offset="0.832031"/><stop stop-opacity="1" stop-color="rgb(84.338379%, 10.720825%, 5.914307%)" offset="0.835938"/><stop stop-opacity="1" stop-color="rgb(84.629822%, 10.670471%, 5.836487%)" offset="0.839844"/><stop stop-opacity="1" stop-color="rgb(84.921265%, 10.620117%, 5.760193%)" offset="0.84375"/><stop stop-opacity="1" stop-color="rgb(85.212708%, 10.568237%, 5.682373%)" offset="0.847656"/><stop stop-opacity="1" stop-color="rgb(85.50415%, 10.517883%, 5.606079%)" offset="0.851562"/><stop stop-opacity="1" stop-color="rgb(85.795593%, 10.466003%, 5.528259%)" offset="0.855469"/><stop stop-opacity="1" stop-color="rgb(86.087036%, 10.415649%, 5.451965%)" offset="0.859375"/><stop stop-opacity="1" stop-color="rgb(86.378479%, 10.365295%, 5.374146%)" offset="0.863281"/><stop stop-opacity="1" stop-color="rgb(86.669922%, 10.314941%, 5.297852%)" offset="0.867188"/><stop stop-opacity="1" stop-color="rgb(86.961365%, 10.263062%, 5.220032%)" offset="0.871094"/><stop stop-opacity="1" stop-color="rgb(87.252808%, 10.212708%, 5.143738%)" offset="0.875"/><stop stop-opacity="1" stop-color="rgb(87.542725%, 10.160828%, 5.065918%)" offset="0.878906"/><stop stop-opacity="1" stop-color="rgb(87.834167%, 10.110474%, 4.989624%)" offset="0.882812"/><stop stop-opacity="1" stop-color="rgb(88.12561%, 10.06012%, 4.91333%)" offset="0.886719"/><stop stop-opacity="1" stop-color="rgb(88.417053%, 10.009766%, 4.837036%)" offset="0.890625"/><stop stop-opacity="1" stop-color="rgb(88.708496%, 9.957886%, 4.759216%)" offset="0.894531"/><stop stop-opacity="1" stop-color="rgb(88.999939%, 9.907532%, 4.682922%)" offset="0.898438"/><stop stop-opacity="1" stop-color="rgb(89.291382%, 9.857178%, 4.605103%)" offset="0.902344"/><stop stop-opacity="1" stop-color="rgb(89.582825%, 9.806824%, 4.528809%)" offset="0.90625"/><stop stop-opacity="1" stop-color="rgb(89.874268%, 9.754944%, 4.450989%)" offset="0.910156"/><stop stop-opacity="1" stop-color="rgb(90.16571%, 9.70459%, 4.374695%)" offset="0.914062"/><stop stop-opacity="1" stop-color="rgb(90.455627%, 9.65271%, 4.296875%)" offset="0.917969"/><stop stop-opacity="1" stop-color="rgb(90.74707%, 9.602356%, 4.220581%)" offset="0.921875"/><stop stop-opacity="1" stop-color="rgb(91.038513%, 9.552002%, 4.142761%)" offset="0.925781"/><stop stop-opacity="1" stop-color="rgb(91.329956%, 9.501648%, 4.066467%)" offset="0.929688"/><stop stop-opacity="1" stop-color="rgb(91.621399%, 9.449768%, 3.988647%)" offset="0.933594"/><stop stop-opacity="1" stop-color="rgb(91.912842%, 9.399414%, 3.912354%)" offset="0.9375"/><stop stop-opacity="1" stop-color="rgb(92.204285%, 9.347534%, 3.834534%)" offset="0.941406"/><stop stop-opacity="1" stop-color="rgb(92.495728%, 9.29718%, 3.75824%)" offset="0.945312"/><stop stop-opacity="1" stop-color="rgb(92.78717%, 9.246826%, 3.68042%)" offset="0.949219"/><stop stop-opacity="1" stop-color="rgb(93.078613%, 9.196472%, 3.604126%)" offset="0.953125"/><stop stop-opacity="1" stop-color="rgb(93.370056%, 9.144592%, 3.526306%)" offset="0.957031"/><stop stop-opacity="1" stop-color="rgb(93.661499%, 9.094238%, 3.450012%)" offset="0.960938"/><stop stop-opacity="1" stop-color="rgb(93.951416%, 9.043884%, 3.372192%)" offset="0.964844"/><stop stop-opacity="1" stop-color="rgb(94.242859%, 8.99353%, 3.295898%)" offset="0.96875"/><stop stop-opacity="1" stop-color="rgb(94.534302%, 8.94165%, 3.218079%)" offset="0.972656"/><stop stop-opacity="1" stop-color="rgb(94.825745%, 8.891296%, 3.141785%)" offset="0.976562"/><stop stop-opacity="1" stop-color="rgb(95.117188%, 8.839417%, 3.063965%)" offset="0.980469"/><stop stop-opacity="1" stop-color="rgb(95.40863%, 8.789062%, 2.987671%)" offset="0.984375"/><stop stop-opacity="1" stop-color="rgb(95.700073%, 8.738708%, 2.909851%)" offset="0.988281"/><stop stop-opacity="1" stop-color="rgb(95.991516%, 8.688354%, 2.833557%)" offset="0.992188"/><stop stop-opacity="1" stop-color="rgb(96.244812%, 8.644104%, 2.766418%)" offset="0.996094"/><stop stop-opacity="1" stop-color="rgb(96.499634%, 8.599854%, 2.69928%)" offset="1"/></linearGradient><clipPath id="id4"><path d="M 469 52.058594 L 536 52.058594 L 536 119 L 469 119 Z M 469 52.058594 " clip-rule="nonzero"/></clipPath><clipPath id="id5"><path d="M 535.597656 85.207031 C 535.597656 84.125 535.542969 83.046875 535.4375 81.96875 C 535.332031 80.890625 535.171875 79.820312 534.960938 78.757812 C 534.75 77.695312 534.488281 76.648438 534.175781 75.613281 C 533.859375 74.574219 533.496094 73.558594 533.082031 72.554688 C 532.667969 71.554688 532.207031 70.578125 531.695312 69.625 C 531.183594 68.667969 530.628906 67.742188 530.027344 66.839844 C 529.425781 65.941406 528.78125 65.070312 528.097656 64.234375 C 527.410156 63.398438 526.683594 62.597656 525.917969 61.832031 C 525.152344 61.066406 524.351562 60.339844 523.515625 59.652344 C 522.679688 58.964844 521.8125 58.320312 520.910156 57.71875 C 520.011719 57.117188 519.082031 56.5625 518.128906 56.050781 C 517.175781 55.539062 516.199219 55.078125 515.199219 54.664062 C 514.199219 54.25 513.179688 53.882812 512.144531 53.570312 C 511.109375 53.257812 510.058594 52.992188 509 52.78125 C 507.9375 52.570312 506.867188 52.410156 505.789062 52.304688 C 504.714844 52.199219 503.632812 52.148438 502.550781 52.148438 C 501.46875 52.148438 500.390625 52.199219 499.3125 52.304688 C 498.234375 52.410156 497.167969 52.570312 496.105469 52.78125 C 495.042969 52.992188 493.996094 53.257812 492.957031 53.570312 C 491.921875 53.882812 490.90625 54.25 489.90625 54.664062 C 488.90625 55.078125 487.929688 55.539062 486.972656 56.050781 C 486.019531 56.5625 485.09375 57.117188 484.191406 57.71875 C 483.292969 58.320312 482.425781 58.964844 481.585938 59.652344 C 480.75 60.339844 479.949219 61.066406 479.183594 61.832031 C 478.417969 62.597656 477.695312 63.398438 477.007812 64.234375 C 476.320312 65.070312 475.675781 65.941406 475.074219 66.839844 C 474.472656 67.742188 473.917969 68.667969 473.40625 69.625 C 472.898438 70.578125 472.4375 71.554688 472.019531 72.554688 C 471.605469 73.558594 471.242188 74.574219 470.929688 75.613281 C 470.613281 76.648438 470.351562 77.695312 470.140625 78.757812 C 469.929688 79.820312 469.769531 80.890625 469.664062 81.96875 C 469.558594 83.046875 469.507812 84.125 469.507812 85.207031 C 469.507812 86.292969 469.558594 87.371094 469.664062 88.449219 C 469.769531 89.527344 469.929688 90.597656 470.140625 91.660156 C 470.351562 92.722656 470.613281 93.769531 470.929688 94.804688 C 471.242188 95.84375 471.605469 96.859375 472.019531 97.859375 C 472.4375 98.863281 472.898438 99.839844 473.40625 100.792969 C 473.917969 101.75 474.472656 102.675781 475.074219 103.578125 C 475.675781 104.476562 476.320312 105.347656 477.007812 106.183594 C 477.695312 107.019531 478.417969 107.820312 479.183594 108.585938 C 479.949219 109.351562 480.75 110.078125 481.585938 110.765625 C 482.425781 111.453125 483.292969 112.097656 484.191406 112.699219 C 485.09375 113.300781 486.019531 113.855469 486.972656 114.367188 C 487.929688 114.878906 488.90625 115.339844 489.90625 115.753906 C 490.90625 116.167969 491.921875 116.53125 492.957031 116.847656 C 493.996094 117.160156 495.042969 117.425781 496.105469 117.636719 C 497.167969 117.847656 498.234375 118.003906 499.3125 118.113281 C 500.390625 118.21875 501.46875 118.269531 502.550781 118.269531 C 503.632812 118.269531 504.714844 118.21875 505.789062 118.113281 C 506.867188 118.003906 507.9375 117.847656 509 117.636719 C 510.058594 117.425781 511.109375 117.160156 512.144531 116.847656 C 513.179688 116.53125 514.199219 116.167969 515.199219 115.753906 C 516.199219 115.339844 517.175781 114.878906 518.128906 114.367188 C 519.082031 113.855469 520.011719 113.300781 520.910156 112.699219 C 521.8125 112.097656 522.679688 111.453125 523.515625 110.765625 C 524.351562 110.078125 525.152344 109.351562 525.917969 108.585938 C 526.683594 107.820312 527.410156 107.019531 528.097656 106.183594 C 528.78125 105.347656 529.425781 104.476562 530.027344 103.578125 C 530.628906 102.675781 531.183594 101.75 531.695312 100.792969 C 532.207031 99.839844 532.667969 98.863281 533.082031 97.859375 C 533.496094 96.859375 533.859375 95.84375 534.175781 94.804688 C 534.488281 93.769531 534.75 92.722656 534.960938 91.660156 C 535.171875 90.597656 535.332031 89.527344 535.4375 88.449219 C 535.542969 87.371094 535.597656 86.292969 535.597656 85.207031 Z M 535.597656 85.207031 " clip-rule="nonzero"/></clipPath><linearGradient x1="126.599995" gradientTransform="matrix(2.898742, 0, 0, -2.900187, 102.525279, 594.191845)" y1="95.099998" x2="149.399991" gradientUnits="userSpaceOnUse" y2="95.099998" id="id6"><stop stop-opacity="1" stop-color="rgb(64.72168%, 14.144897%, 11.102295%)" offset="0"/><stop stop-opacity="1" stop-color="rgb(64.840698%, 14.123535%, 11.070251%)" offset="0.03125"/><stop stop-opacity="1" stop-color="rgb(65.081787%, 14.080811%, 11.006165%)" offset="0.0625"/><stop stop-opacity="1" stop-color="rgb(65.32135%, 14.039612%, 10.943604%)" offset="0.09375"/><stop stop-opacity="1" stop-color="rgb(65.562439%, 13.996887%, 10.879517%)" offset="0.125"/><stop stop-opacity="1" stop-color="rgb(65.802002%, 13.955688%, 10.81543%)" offset="0.15625"/><stop stop-opacity="1" stop-color="rgb(66.043091%, 13.912964%, 10.752869%)" offset="0.1875"/><stop stop-opacity="1" stop-color="rgb(66.28418%, 13.871765%, 10.688782%)" offset="0.21875"/><stop stop-opacity="1" stop-color="rgb(66.523743%, 13.829041%, 10.624695%)" offset="0.25"/><stop stop-opacity="1" stop-color="rgb(66.764832%, 13.787842%, 10.562134%)" offset="0.28125"/><stop stop-opacity="1" stop-color="rgb(67.004395%, 13.745117%, 10.498047%)" offset="0.3125"/><stop stop-opacity="1" stop-color="rgb(67.245483%, 13.703918%, 10.43396%)" offset="0.34375"/><stop stop-opacity="1" stop-color="rgb(67.485046%, 13.661194%, 10.371399%)" offset="0.375"/><stop stop-opacity="1" stop-color="rgb(67.726135%, 13.619995%, 10.307312%)" offset="0.40625"/><stop stop-opacity="1" stop-color="rgb(67.967224%, 13.577271%, 10.243225%)" offset="0.4375"/><stop stop-opacity="1" stop-color="rgb(68.206787%, 13.536072%, 10.180664%)" offset="0.46875"/><stop stop-opacity="1" stop-color="rgb(68.447876%, 13.493347%, 10.116577%)" offset="0.5"/><stop stop-opacity="1" stop-color="rgb(68.687439%, 13.452148%, 10.05249%)" offset="0.53125"/><stop stop-opacity="1" stop-color="rgb(68.928528%, 13.409424%, 9.989929%)" offset="0.5625"/><stop stop-opacity="1" stop-color="rgb(69.168091%, 13.368225%, 9.925842%)" offset="0.59375"/><stop stop-opacity="1" stop-color="rgb(69.40918%, 13.3255%, 9.861755%)" offset="0.625"/><stop stop-opacity="1" stop-color="rgb(69.650269%, 13.284302%, 9.799194%)" offset="0.65625"/><stop stop-opacity="1" stop-color="rgb(69.889832%, 13.241577%, 9.735107%)" offset="0.6875"/><stop stop-opacity="1" stop-color="rgb(70.13092%, 13.200378%, 9.671021%)" offset="0.71875"/><stop stop-opacity="1" stop-color="rgb(70.370483%, 13.157654%, 9.608459%)" offset="0.75"/><stop stop-opacity="1" stop-color="rgb(70.611572%, 13.116455%, 9.544373%)" offset="0.78125"/><stop stop-opacity="1" stop-color="rgb(70.851135%, 13.07373%, 9.480286%)" offset="0.8125"/><stop stop-opacity="1" stop-color="rgb(71.092224%, 13.032532%, 9.417725%)" offset="0.84375"/><stop stop-opacity="1" stop-color="rgb(71.333313%, 12.989807%, 9.353638%)" offset="0.875"/><stop stop-opacity="1" stop-color="rgb(71.572876%, 12.948608%, 9.289551%)" offset="0.90625"/><stop stop-opacity="1" stop-color="rgb(71.813965%, 12.905884%, 9.22699%)" offset="0.9375"/><stop stop-opacity="1" stop-color="rgb(72.053528%, 12.864685%, 9.162903%)" offset="0.96875"/><stop stop-opacity="1" stop-color="rgb(72.294617%, 12.82196%, 9.098816%)" offset="1"/></linearGradient><clipPath id="id7"><path d="M 452 528 L 519 528 L 519 594.191406 L 452 594.191406 Z M 452 528 " clip-rule="nonzero"/></clipPath><clipPath id="id8"><path d="M 518.496094 561.417969 C 518.496094 560.347656 518.441406 559.277344 518.335938 558.207031 C 518.230469 557.140625 518.074219 556.078125 517.867188 555.027344 C 517.65625 553.972656 517.394531 552.933594 517.085938 551.90625 C 516.773438 550.878906 516.410156 549.871094 516 548.878906 C 515.589844 547.886719 515.132812 546.917969 514.625 545.972656 C 514.121094 545.023438 513.570312 544.105469 512.972656 543.210938 C 512.378906 542.320312 511.738281 541.457031 511.058594 540.628906 C 510.378906 539.800781 509.660156 539.003906 508.902344 538.246094 C 508.140625 537.488281 507.347656 536.765625 506.519531 536.085938 C 505.691406 535.40625 504.828125 534.765625 503.9375 534.171875 C 503.046875 533.574219 502.125 533.023438 501.179688 532.515625 C 500.234375 532.011719 499.265625 531.554688 498.273438 531.140625 C 497.28125 530.730469 496.273438 530.371094 495.246094 530.058594 C 494.222656 529.746094 493.179688 529.488281 492.128906 529.277344 C 491.078125 529.066406 490.015625 528.910156 488.949219 528.804688 C 487.882812 528.699219 486.8125 528.648438 485.738281 528.648438 C 484.667969 528.648438 483.597656 528.699219 482.527344 528.804688 C 481.460938 528.910156 480.402344 529.066406 479.347656 529.277344 C 478.296875 529.488281 477.257812 529.746094 476.230469 530.058594 C 475.203125 530.371094 474.195312 530.730469 473.203125 531.140625 C 472.210938 531.554688 471.242188 532.011719 470.296875 532.515625 C 469.351562 533.023438 468.433594 533.574219 467.539062 534.171875 C 466.648438 534.765625 465.789062 535.40625 464.957031 536.085938 C 464.128906 536.765625 463.335938 537.488281 462.578125 538.246094 C 461.820312 539.003906 461.097656 539.800781 460.417969 540.628906 C 459.738281 541.457031 459.097656 542.320312 458.503906 543.210938 C 457.90625 544.105469 457.355469 545.023438 456.851562 545.972656 C 456.34375 546.917969 455.886719 547.886719 455.476562 548.878906 C 455.066406 549.871094 454.703125 550.878906 454.394531 551.90625 C 454.082031 552.933594 453.820312 553.972656 453.613281 555.027344 C 453.402344 556.078125 453.246094 557.140625 453.140625 558.207031 C 453.035156 559.277344 452.984375 560.347656 452.984375 561.417969 C 452.984375 562.492188 453.035156 563.5625 453.140625 564.632812 C 453.246094 565.699219 453.402344 566.761719 453.613281 567.8125 C 453.820312 568.867188 454.082031 569.90625 454.394531 570.933594 C 454.703125 571.960938 455.066406 572.96875 455.476562 573.960938 C 455.886719 574.953125 456.34375 575.921875 456.851562 576.867188 C 457.355469 577.816406 457.90625 578.734375 458.503906 579.625 C 459.097656 580.519531 459.738281 581.378906 460.417969 582.210938 C 461.097656 583.039062 461.820312 583.835938 462.578125 584.59375 C 463.335938 585.351562 464.128906 586.070312 464.957031 586.753906 C 465.789062 587.433594 466.648438 588.074219 467.539062 588.667969 C 468.433594 589.265625 469.351562 589.816406 470.296875 590.320312 C 471.242188 590.828125 472.210938 591.285156 473.203125 591.695312 C 474.195312 592.109375 475.203125 592.46875 476.230469 592.78125 C 477.257812 593.09375 478.296875 593.351562 479.347656 593.5625 C 480.402344 593.773438 481.460938 593.929688 482.527344 594.035156 C 483.597656 594.140625 484.667969 594.191406 485.738281 594.191406 C 486.8125 594.191406 487.882812 594.140625 488.949219 594.035156 C 490.015625 593.929688 491.078125 593.773438 492.128906 593.5625 C 493.179688 593.351562 494.222656 593.09375 495.246094 592.78125 C 496.273438 592.46875 497.28125 592.109375 498.273438 591.695312 C 499.265625 591.285156 500.234375 590.828125 501.179688 590.320312 C 502.125 589.816406 503.046875 589.265625 503.9375 588.667969 C 504.828125 588.074219 505.691406 587.433594 506.519531 586.753906 C 507.347656 586.070312 508.140625 585.351562 508.902344 584.59375 C 509.660156 583.835938 510.378906 583.039062 511.058594 582.210938 C 511.738281 581.378906 512.378906 580.519531 512.972656 579.625 C 513.570312 578.734375 514.121094 577.816406 514.625 576.867188 C 515.132812 575.921875 515.589844 574.953125 516 573.960938 C 516.410156 572.96875 516.773438 571.960938 517.085938 570.933594 C 517.394531 569.90625 517.65625 568.867188 517.867188 567.8125 C 518.074219 566.761719 518.230469 565.699219 518.335938 564.632812 C 518.441406 563.5625 518.496094 562.492188 518.496094 561.417969 Z M 518.496094 561.417969 " clip-rule="nonzero"/></clipPath><linearGradient x1="120.899991" gradientTransform="matrix(2.898742, 0, 0, -2.900187, 102.525279, 594.191845)" y1="95.099998" x2="143.499997" gradientUnits="userSpaceOnUse" y2="95.099998" id="id9"><stop stop-opacity="1" stop-color="rgb(62.797546%, 14.480591%, 11.610413%)" offset="0"/><stop stop-opacity="1" stop-color="rgb(62.916565%, 14.459229%, 11.578369%)" offset="0.03125"/><stop stop-opacity="1" stop-color="rgb(63.154602%, 14.416504%, 11.515808%)" offset="0.0625"/><stop stop-opacity="1" stop-color="rgb(63.392639%, 14.375305%, 11.453247%)" offset="0.09375"/><stop stop-opacity="1" stop-color="rgb(63.632202%, 14.334106%, 11.38916%)" offset="0.125"/><stop stop-opacity="1" stop-color="rgb(63.870239%, 14.292908%, 11.326599%)" offset="0.15625"/><stop stop-opacity="1" stop-color="rgb(64.108276%, 14.250183%, 11.264038%)" offset="0.1875"/><stop stop-opacity="1" stop-color="rgb(64.346313%, 14.208984%, 11.201477%)" offset="0.21875"/><stop stop-opacity="1" stop-color="rgb(64.584351%, 14.167786%, 11.13739%)" offset="0.25"/><stop stop-opacity="1" stop-color="rgb(64.823914%, 14.126587%, 11.074829%)" offset="0.28125"/><stop stop-opacity="1" stop-color="rgb(65.061951%, 14.083862%, 11.012268%)" offset="0.3125"/><stop stop-opacity="1" stop-color="rgb(65.299988%, 14.042664%, 10.948181%)" offset="0.34375"/><stop stop-opacity="1" stop-color="rgb(65.538025%, 14.001465%, 10.88562%)" offset="0.375"/><stop stop-opacity="1" stop-color="rgb(65.776062%, 13.960266%, 10.823059%)" offset="0.40625"/><stop stop-opacity="1" stop-color="rgb(66.014099%, 13.917542%, 10.758972%)" offset="0.4375"/><stop stop-opacity="1" stop-color="rgb(66.253662%, 13.876343%, 10.696411%)" offset="0.46875"/><stop stop-opacity="1" stop-color="rgb(66.491699%, 13.835144%, 10.63385%)" offset="0.5"/><stop stop-opacity="1" stop-color="rgb(66.729736%, 13.793945%, 10.571289%)" offset="0.53125"/><stop stop-opacity="1" stop-color="rgb(66.967773%, 13.751221%, 10.507202%)" offset="0.5625"/><stop stop-opacity="1" stop-color="rgb(67.205811%, 13.710022%, 10.444641%)" offset="0.59375"/><stop stop-opacity="1" stop-color="rgb(67.445374%, 13.668823%, 10.38208%)" offset="0.625"/><stop stop-opacity="1" stop-color="rgb(67.683411%, 13.627625%, 10.317993%)" offset="0.65625"/><stop stop-opacity="1" stop-color="rgb(67.921448%, 13.5849%, 10.255432%)" offset="0.6875"/><stop stop-opacity="1" stop-color="rgb(68.159485%, 13.543701%, 10.192871%)" offset="0.71875"/><stop stop-opacity="1" stop-color="rgb(68.397522%, 13.502502%, 10.128784%)" offset="0.75"/><stop stop-opacity="1" stop-color="rgb(68.637085%, 13.461304%, 10.066223%)" offset="0.78125"/><stop stop-opacity="1" stop-color="rgb(68.875122%, 13.418579%, 10.003662%)" offset="0.8125"/><stop stop-opacity="1" stop-color="rgb(69.113159%, 13.37738%, 9.941101%)" offset="0.84375"/><stop stop-opacity="1" stop-color="rgb(69.351196%, 13.336182%, 9.877014%)" offset="0.875"/><stop stop-opacity="1" stop-color="rgb(69.589233%, 13.294983%, 9.814453%)" offset="0.90625"/><stop stop-opacity="1" stop-color="rgb(69.828796%, 13.252258%, 9.751892%)" offset="0.9375"/><stop stop-opacity="1" stop-color="rgb(70.066833%, 13.21106%, 9.687805%)" offset="0.96875"/><stop stop-opacity="1" stop-color="rgb(70.304871%, 13.169861%, 9.625244%)" offset="1"/></linearGradient><clipPath id="id10"><path d="M 116 373 L 159 373 L 159 417 L 116 417 Z M 116 373 " clip-rule="nonzero"/></clipPath><clipPath id="id11"><path d="M 158.761719 394.949219 C 158.761719 394.253906 158.726562 393.5625 158.660156 392.875 C 158.589844 392.183594 158.488281 391.5 158.355469 390.820312 C 158.21875 390.136719 158.050781 389.464844 157.851562 388.804688 C 157.648438 388.140625 157.414062 387.488281 157.148438 386.847656 C 156.886719 386.207031 156.589844 385.582031 156.261719 384.96875 C 155.933594 384.355469 155.578125 383.761719 155.195312 383.1875 C 154.808594 382.609375 154.398438 382.054688 153.957031 381.519531 C 153.519531 380.980469 153.054688 380.46875 152.5625 379.980469 C 152.074219 379.488281 151.558594 379.023438 151.023438 378.582031 C 150.488281 378.144531 149.933594 377.730469 149.355469 377.34375 C 148.78125 376.960938 148.1875 376.605469 147.574219 376.277344 C 146.964844 375.949219 146.339844 375.65625 145.699219 375.390625 C 145.058594 375.125 144.40625 374.890625 143.742188 374.6875 C 143.078125 374.488281 142.40625 374.320312 141.726562 374.183594 C 141.046875 374.050781 140.363281 373.949219 139.675781 373.878906 C 138.984375 373.8125 138.292969 373.777344 137.601562 373.777344 C 136.90625 373.777344 136.214844 373.8125 135.527344 373.878906 C 134.835938 373.949219 134.152344 374.050781 133.472656 374.183594 C 132.792969 374.320312 132.121094 374.488281 131.457031 374.6875 C 130.792969 374.890625 130.140625 375.125 129.503906 375.390625 C 128.863281 375.65625 128.234375 375.949219 127.625 376.277344 C 127.015625 376.605469 126.421875 376.960938 125.84375 377.34375 C 125.265625 377.730469 124.710938 378.144531 124.175781 378.582031 C 123.640625 379.023438 123.128906 379.488281 122.636719 379.980469 C 122.148438 380.46875 121.683594 380.980469 121.242188 381.519531 C 120.804688 382.054688 120.390625 382.609375 120.003906 383.1875 C 119.621094 383.761719 119.265625 384.355469 118.9375 384.96875 C 118.609375 385.582031 118.316406 386.207031 118.050781 386.847656 C 117.785156 387.488281 117.550781 388.140625 117.351562 388.804688 C 117.148438 389.464844 116.980469 390.136719 116.847656 390.820312 C 116.710938 391.5 116.609375 392.183594 116.542969 392.875 C 116.472656 393.5625 116.4375 394.253906 116.4375 394.949219 C 116.4375 395.640625 116.472656 396.335938 116.542969 397.023438 C 116.609375 397.714844 116.710938 398.398438 116.847656 399.078125 C 116.980469 399.757812 117.148438 400.429688 117.351562 401.09375 C 117.550781 401.757812 117.785156 402.410156 118.050781 403.050781 C 118.316406 403.691406 118.609375 404.316406 118.9375 404.929688 C 119.265625 405.539062 119.621094 406.132812 120.003906 406.710938 C 120.390625 407.289062 120.804688 407.84375 121.242188 408.378906 C 121.683594 408.914062 122.148438 409.429688 122.636719 409.917969 C 123.128906 410.410156 123.640625 410.875 124.175781 411.316406 C 124.710938 411.753906 125.265625 412.167969 125.84375 412.550781 C 126.421875 412.9375 127.015625 413.292969 127.625 413.621094 C 128.234375 413.949219 128.863281 414.242188 129.503906 414.507812 C 130.140625 414.773438 130.792969 415.007812 131.457031 415.207031 C 132.121094 415.410156 132.792969 415.578125 133.472656 415.714844 C 134.152344 415.847656 134.835938 415.949219 135.527344 416.019531 C 136.214844 416.085938 136.90625 416.121094 137.601562 416.121094 C 138.292969 416.121094 138.984375 416.085938 139.675781 416.019531 C 140.363281 415.949219 141.046875 415.847656 141.726562 415.714844 C 142.40625 415.578125 143.078125 415.410156 143.742188 415.207031 C 144.40625 415.007812 145.058594 414.773438 145.699219 414.507812 C 146.339844 414.242188 146.964844 413.949219 147.574219 413.621094 C 148.1875 413.292969 148.78125 412.9375 149.355469 412.550781 C 149.933594 412.167969 150.488281 411.753906 151.023438 411.316406 C 151.558594 410.875 152.074219 410.410156 152.5625 409.917969 C 153.054688 409.429688 153.519531 408.914062 153.957031 408.378906 C 154.398438 407.84375 154.808594 407.289062 155.195312 406.710938 C 155.578125 406.132812 155.933594 405.539062 156.261719 404.929688 C 156.589844 404.316406 156.886719 403.691406 157.148438 403.050781 C 157.414062 402.410156 157.648438 401.757812 157.851562 401.09375 C 158.050781 400.429688 158.21875 399.757812 158.355469 399.078125 C 158.488281 398.398438 158.589844 397.714844 158.660156 397.023438 C 158.726562 396.335938 158.761719 395.640625 158.761719 394.949219 Z M 158.761719 394.949219 " clip-rule="nonzero"/></clipPath><linearGradient x1="4.799999" gradientTransform="matrix(2.898742, 0, 0, -2.900187, 102.525279, 594.191845)" y1="95.099998" x2="19.400002" gradientUnits="userSpaceOnUse" y2="95.099998" id="id12"><stop stop-opacity="1" stop-color="rgb(23.61908%, 21.316528%, 21.97113%)" offset="0"/><stop stop-opacity="1" stop-color="rgb(23.773193%, 21.289062%, 21.929932%)" offset="0.0625"/><stop stop-opacity="1" stop-color="rgb(24.081421%, 21.235657%, 21.847534%)" offset="0.125"/><stop stop-opacity="1" stop-color="rgb(24.388123%, 21.182251%, 21.766663%)" offset="0.1875"/><stop stop-opacity="1" stop-color="rgb(24.69635%, 21.127319%, 21.685791%)" offset="0.25"/><stop stop-opacity="1" stop-color="rgb(25.004578%, 21.073914%, 21.603394%)" offset="0.3125"/><stop stop-opacity="1" stop-color="rgb(25.312805%, 21.020508%, 21.522522%)" offset="0.375"/><stop stop-opacity="1" stop-color="rgb(25.621033%, 20.967102%, 21.44165%)" offset="0.4375"/><stop stop-opacity="1" stop-color="rgb(25.927734%, 20.913696%, 21.359253%)" offset="0.5"/><stop stop-opacity="1" stop-color="rgb(26.235962%, 20.858765%, 21.278381%)" offset="0.5625"/><stop stop-opacity="1" stop-color="rgb(26.544189%, 20.805359%, 21.19751%)" offset="0.625"/><stop stop-opacity="1" stop-color="rgb(26.852417%, 20.751953%, 21.115112%)" offset="0.6875"/><stop stop-opacity="1" stop-color="rgb(27.160645%, 20.698547%, 21.034241%)" offset="0.75"/><stop stop-opacity="1" stop-color="rgb(27.467346%, 20.643616%, 20.953369%)" offset="0.8125"/><stop stop-opacity="1" stop-color="rgb(27.775574%, 20.59021%, 20.870972%)" offset="0.875"/><stop stop-opacity="1" stop-color="rgb(28.083801%, 20.536804%, 20.7901%)" offset="0.9375"/><stop stop-opacity="1" stop-color="rgb(28.392029%, 20.483398%, 20.707703%)" offset="1"/></linearGradient></defs><g clip-path="url(#id1)"><g clip-path="url(#id2)"><path fill="url(#id3)" d="M 102.523438 573.601562 L 102.523438 62.878906 L 743.121094 62.878906 L 743.121094 573.601562 Z M 102.523438 573.601562 " fill-rule="nonzero"/></g></g><g clip-path="url(#id4)"><g clip-path="url(#id5)"><path fill="url(#id6)" d="M 469.507812 118.269531 L 469.507812 52.148438 L 535.597656 52.148438 L 535.597656 118.269531 Z M 469.507812 118.269531 " fill-rule="nonzero"/></g></g><g clip-path="url(#id7)"><g clip-path="url(#id8)"><path fill="url(#id9)" d="M 452.984375 594.191406 L 452.984375 528.648438 L 518.496094 528.648438 L 518.496094 594.191406 Z M 452.984375 594.191406 " fill-rule="nonzero"/></g></g><g clip-path="url(#id10)"><g clip-path="url(#id11)"><path fill="url(#id12)" d="M 116.4375 416.121094 L 116.4375 373.777344 L 158.761719 373.777344 L 158.761719 416.121094 Z M 116.4375 416.121094 " fill-rule="nonzero"/></g></g><g fill="rgb(100%, 100%, 100%)" fill-opacity="1"><g transform="translate(199.046782, 449.657616)"><g><path d="M 296.875 -152.53125 C 296.507812 -143.8125 293.054688 -136.726562 286.515625 -131.28125 C 279.984375 -125.832031 272.363281 -123.109375 263.65625 -123.109375 L 83.890625 -123.109375 C 88.242188 -101.679688 98.226562 -84.882812 113.84375 -72.71875 C 129.457031 -60.550781 147.070312 -54.46875 166.6875 -54.46875 C 181.570312 -54.46875 193.191406 -55.828125 201.546875 -58.546875 C 209.898438 -61.273438 216.523438 -64.179688 221.421875 -67.265625 C 226.328125 -70.359375 229.691406 -72.453125 231.515625 -73.546875 C 238.046875 -76.804688 244.21875 -78.4375 250.03125 -78.4375 C 257.65625 -78.4375 264.191406 -75.710938 269.640625 -70.265625 C 275.085938 -64.816406 277.8125 -58.460938 277.8125 -51.203125 C 277.8125 -41.398438 272.726562 -32.503906 262.5625 -24.515625 C 252.394531 -16.160156 238.773438 -9.078125 221.703125 -3.265625 C 204.640625 2.546875 187.390625 5.453125 169.953125 5.453125 C 139.453125 5.453125 112.851562 -0.898438 90.15625 -13.609375 C 67.457031 -26.328125 49.929688 -43.851562 37.578125 -66.1875 C 25.234375 -88.519531 19.0625 -113.664062 19.0625 -141.625 C 19.0625 -172.863281 25.597656 -200.285156 38.671875 -223.890625 C 51.742188 -247.492188 68.992188 -265.554688 90.421875 -278.078125 C 111.847656 -290.609375 134.726562 -296.875 159.0625 -296.875 C 183.03125 -296.875 205.632812 -290.335938 226.875 -277.265625 C 248.125 -264.191406 265.101562 -246.578125 277.8125 -224.421875 C 290.519531 -202.273438 296.875 -178.3125 296.875 -152.53125 Z M 159.0625 -236.953125 C 116.9375 -236.953125 92.0625 -217.160156 84.4375 -177.578125 L 227.15625 -177.578125 L 227.15625 -181.390625 C 225.695312 -196.648438 218.25 -209.722656 204.8125 -220.609375 C 191.382812 -231.503906 176.132812 -236.953125 159.0625 -236.953125 Z M 159.0625 -236.953125 "/></g></g></g><g fill="rgb(97.648621%, 96.469116%, 91.369629%)" fill-opacity="1"><g transform="translate(105.287201, 665.047569)"><g><path d="M 13.4375 -39.328125 L 13.4375 -27.5 L 27.96875 -27.5 C 29.125 -27.5 30.09375 -27.128906 30.875 -26.390625 C 31.664062 -25.648438 32.0625 -24.695312 32.0625 -23.53125 C 32.0625 -22.539062 31.664062 -21.664062 30.875 -20.90625 C 30.09375 -20.144531 29.125 -19.765625 27.96875 -19.765625 L 13.4375 -19.765625 L 13.4375 -4.09375 C 13.4375 -2.9375 13.019531 -1.960938 12.1875 -1.171875 C 11.363281 -0.390625 10.394531 0 9.28125 0 C 8.019531 0 7 -0.378906 6.21875 -1.140625 C 5.4375 -1.898438 5.046875 -2.882812 5.046875 -4.09375 L 5.046875 -42.953125 C 5.046875 -44.117188 5.4375 -45.09375 6.21875 -45.875 C 7 -46.65625 7.972656 -47.046875 9.140625 -47.046875 L 30.984375 -47.046875 C 32.148438 -47.046875 33.125 -46.675781 33.90625 -45.9375 C 34.695312 -45.195312 35.09375 -44.25 35.09375 -43.09375 C 35.09375 -42.101562 34.695312 -41.226562 33.90625 -40.46875 C 33.125 -39.707031 32.148438 -39.328125 30.984375 -39.328125 Z M 13.4375 -39.328125 "/></g></g></g><g fill="rgb(97.648621%, 96.469116%, 91.369629%)" fill-opacity="1"><g transform="translate(171.023573, 665.047569)"><g><path d="M 48.328125 -23.53125 C 48.328125 -19.09375 47.34375 -15.023438 45.375 -11.328125 C 43.40625 -7.628906 40.679688 -4.703125 37.203125 -2.546875 C 33.734375 -0.398438 29.820312 0.671875 25.46875 0.671875 C 21.125 0.671875 17.210938 -0.398438 13.734375 -2.546875 C 10.265625 -4.703125 7.554688 -7.628906 5.609375 -11.328125 C 3.660156 -15.023438 2.6875 -19.09375 2.6875 -23.53125 C 2.6875 -27.96875 3.660156 -32.03125 5.609375 -35.71875 C 7.554688 -39.414062 10.265625 -42.335938 13.734375 -44.484375 C 17.210938 -46.640625 21.125 -47.71875 25.46875 -47.71875 C 29.820312 -47.71875 33.734375 -46.640625 37.203125 -44.484375 C 40.679688 -42.335938 43.40625 -39.414062 45.375 -35.71875 C 47.34375 -32.03125 48.328125 -27.96875 48.328125 -23.53125 Z M 39.59375 -23.53125 C 39.59375 -26.53125 38.988281 -29.25 37.78125 -31.6875 C 36.570312 -34.132812 34.890625 -36.070312 32.734375 -37.5 C 30.585938 -38.9375 28.164062 -39.65625 25.46875 -39.65625 C 22.738281 -39.65625 20.304688 -38.945312 18.171875 -37.53125 C 16.046875 -36.125 14.390625 -34.1875 13.203125 -31.71875 C 12.015625 -29.257812 11.421875 -26.53125 11.421875 -23.53125 C 11.421875 -20.519531 12.015625 -17.78125 13.203125 -15.3125 C 14.390625 -12.851562 16.046875 -10.914062 18.171875 -9.5 C 20.304688 -8.09375 22.738281 -7.390625 25.46875 -7.390625 C 28.164062 -7.390625 30.585938 -8.109375 32.734375 -9.546875 C 34.890625 -10.984375 36.570312 -12.921875 37.78125 -15.359375 C 38.988281 -17.796875 39.59375 -20.519531 39.59375 -23.53125 Z M 39.59375 -23.53125 "/></g></g></g><g fill="rgb(97.648621%, 96.469116%, 91.369629%)" fill-opacity="1"><g transform="translate(250.00116, 665.047569)"><g><path d="M 41.9375 -6.59375 C 42.519531 -6.226562 42.976562 -5.753906 43.3125 -5.171875 C 43.65625 -4.585938 43.828125 -3.984375 43.828125 -3.359375 C 43.828125 -2.554688 43.554688 -1.816406 43.015625 -1.140625 C 42.347656 -0.335938 41.316406 0.0625 39.921875 0.0625 C 38.847656 0.0625 37.863281 -0.179688 36.96875 -0.671875 C 33.738281 -2.503906 32.125 -6.242188 32.125 -11.890625 C 32.125 -13.503906 31.597656 -14.78125 30.546875 -15.71875 C 29.492188 -16.664062 27.984375 -17.140625 26.015625 -17.140625 L 13.4375 -17.140625 L 13.4375 -4.09375 C 13.4375 -2.882812 13.113281 -1.898438 12.46875 -1.140625 C 11.820312 -0.378906 10.957031 0 9.875 0 C 8.582031 0 7.453125 -0.390625 6.484375 -1.171875 C 5.523438 -1.960938 5.046875 -2.9375 5.046875 -4.09375 L 5.046875 -42.953125 C 5.046875 -44.117188 5.4375 -45.09375 6.21875 -45.875 C 7 -46.65625 7.972656 -47.046875 9.140625 -47.046875 L 28.5 -47.046875 C 30.832031 -47.046875 33.03125 -46.414062 35.09375 -45.15625 C 37.15625 -43.90625 38.800781 -42.179688 40.03125 -39.984375 C 41.257812 -37.796875 41.875 -35.332031 41.875 -32.59375 C 41.875 -30.351562 41.269531 -28.171875 40.0625 -26.046875 C 38.851562 -23.921875 37.285156 -22.226562 35.359375 -20.96875 C 38.179688 -19 39.726562 -16.359375 40 -13.046875 C 40.132812 -12.328125 40.203125 -11.628906 40.203125 -10.953125 C 40.378906 -9.566406 40.554688 -8.570312 40.734375 -7.96875 C 40.910156 -7.363281 41.3125 -6.90625 41.9375 -6.59375 Z M 28.171875 -24.0625 C 28.972656 -24.0625 29.753906 -24.441406 30.515625 -25.203125 C 31.273438 -25.960938 31.898438 -26.984375 32.390625 -28.265625 C 32.890625 -29.546875 33.140625 -30.925781 33.140625 -32.40625 C 33.140625 -33.65625 32.890625 -34.804688 32.390625 -35.859375 C 31.898438 -36.910156 31.273438 -37.75 30.515625 -38.375 C 29.753906 -39.007812 28.972656 -39.328125 28.171875 -39.328125 L 13.4375 -39.328125 L 13.4375 -24.0625 Z M 28.171875 -24.0625 "/></g></g></g><g fill="rgb(97.648621%, 96.469116%, 91.369629%)" fill-opacity="1"><g transform="translate(324.139324, 665.047569)"><g><path d="M 45.84375 -47.125 C 46.96875 -47.125 47.941406 -46.726562 48.765625 -45.9375 C 49.597656 -45.15625 50.015625 -44.179688 50.015625 -43.015625 L 50.015625 -4.09375 C 50.015625 -2.9375 49.628906 -1.960938 48.859375 -1.171875 C 48.097656 -0.390625 47.09375 0 45.84375 0 C 44.59375 0 43.570312 -0.378906 42.78125 -1.140625 C 42 -1.898438 41.609375 -2.882812 41.609375 -4.09375 L 41.609375 -31.1875 L 30.515625 -14.25 C 30.066406 -13.707031 29.550781 -13.269531 28.96875 -12.9375 C 28.382812 -12.601562 27.78125 -12.457031 27.15625 -12.5 C 26.570312 -12.457031 25.988281 -12.601562 25.40625 -12.9375 C 24.820312 -13.269531 24.304688 -13.707031 23.859375 -14.25 L 12.765625 -31.796875 L 12.765625 -4.09375 C 12.765625 -2.882812 12.40625 -1.898438 11.6875 -1.140625 C 10.976562 -0.378906 10.039062 0 8.875 0 C 7.75 0 6.828125 -0.390625 6.109375 -1.171875 C 5.398438 -1.960938 5.046875 -2.9375 5.046875 -4.09375 L 5.046875 -43.015625 C 5.046875 -44.140625 5.457031 -45.101562 6.28125 -45.90625 C 7.113281 -46.71875 8.113281 -47.125 9.28125 -47.125 C 9.945312 -47.125 10.613281 -46.953125 11.28125 -46.609375 C 11.957031 -46.273438 12.476562 -45.84375 12.84375 -45.3125 L 27.5 -22.78125 L 42.546875 -45.3125 C 42.910156 -45.84375 43.394531 -46.273438 44 -46.609375 C 44.601562 -46.953125 45.21875 -47.125 45.84375 -47.125 Z M 45.84375 -47.125 "/></g></g></g><g fill="rgb(97.648621%, 96.469116%, 91.369629%)" fill-opacity="1"><g transform="translate(407.149771, 665.047569)"><g><path d="M 41.9375 -5.25 C 42.164062 -4.664062 42.28125 -4.125 42.28125 -3.625 C 42.28125 -2.457031 41.898438 -1.503906 41.140625 -0.765625 C 40.378906 -0.0234375 39.503906 0.34375 38.515625 0.34375 C 37.710938 0.34375 36.984375 0.0976562 36.328125 -0.390625 C 35.679688 -0.890625 35.175781 -1.566406 34.8125 -2.421875 L 31.328125 -10.546875 L 11.296875 -10.546875 L 7.796875 -2.359375 C 7.484375 -1.503906 7 -0.835938 6.34375 -0.359375 C 5.695312 0.109375 4.992188 0.34375 4.234375 0.34375 C 3.066406 0.34375 2.179688 0.03125 1.578125 -0.59375 C 0.972656 -1.226562 0.671875 -2.082031 0.671875 -3.15625 C 0.671875 -3.5625 0.738281 -3.988281 0.875 -4.4375 L 17.609375 -44.640625 C 17.972656 -45.535156 18.507812 -46.226562 19.21875 -46.71875 C 19.9375 -47.207031 20.742188 -47.410156 21.640625 -47.328125 C 22.453125 -47.328125 23.203125 -47.085938 23.890625 -46.609375 C 24.585938 -46.140625 25.09375 -45.484375 25.40625 -44.640625 Z M 14.59375 -18.28125 L 28.03125 -18.28125 L 21.234375 -34.015625 Z M 14.59375 -18.28125 "/></g></g></g><g fill="rgb(97.648621%, 96.469116%, 91.369629%)" fill-opacity="1"><g transform="translate(478.061658, 665.047569)"><g><path d="M 30.984375 -7.859375 C 32.148438 -7.859375 33.125 -7.488281 33.90625 -6.75 C 34.695312 -6.007812 35.09375 -5.0625 35.09375 -3.90625 C 35.09375 -2.78125 34.695312 -1.847656 33.90625 -1.109375 C 33.125 -0.367188 32.148438 0 30.984375 0 L 9.140625 0 C 7.972656 0 7 -0.390625 6.21875 -1.171875 C 5.4375 -1.960938 5.046875 -2.9375 5.046875 -4.09375 L 5.046875 -42.953125 C 5.046875 -44.117188 5.445312 -45.09375 6.25 -45.875 C 7.0625 -46.65625 8.09375 -47.046875 9.34375 -47.046875 C 10.46875 -47.046875 11.429688 -46.65625 12.234375 -45.875 C 13.035156 -45.09375 13.4375 -44.117188 13.4375 -42.953125 L 13.4375 -7.859375 Z M 30.984375 -7.859375 "/></g></g></g><g fill="rgb(97.648621%, 96.469116%, 91.369629%)" fill-opacity="1"><g transform="translate(543.79803, 665.047569)"><g><path d="M 13.4375 -4.09375 C 13.4375 -2.9375 13.007812 -1.960938 12.15625 -1.171875 C 11.3125 -0.390625 10.328125 0 9.203125 0 C 7.992188 0 7 -0.390625 6.21875 -1.171875 C 5.4375 -1.960938 5.046875 -2.9375 5.046875 -4.09375 L 5.046875 -42.953125 C 5.046875 -44.117188 5.445312 -45.09375 6.25 -45.875 C 7.0625 -46.65625 8.09375 -47.046875 9.34375 -47.046875 C 10.46875 -47.046875 11.429688 -46.65625 12.234375 -45.875 C 13.035156 -45.09375 13.4375 -44.117188 13.4375 -42.953125 Z M 13.4375 -4.09375 "/></g></g></g><g fill="rgb(97.648621%, 96.469116%, 91.369629%)" fill-opacity="1"><g transform="translate(590.243907, 665.047569)"><g><path d="M 41.203125 -43.09375 C 41.203125 -42.238281 40.890625 -41.382812 40.265625 -40.53125 L 14.71875 -7.734375 L 36.15625 -7.734375 C 37.375 -7.734375 38.363281 -7.382812 39.125 -6.6875 C 39.882812 -5.988281 40.265625 -5.0625 40.265625 -3.90625 C 40.265625 -2.78125 39.867188 -1.847656 39.078125 -1.109375 C 38.296875 -0.367188 37.320312 0 36.15625 0 L 6.65625 0 C 5.488281 0 4.476562 -0.398438 3.625 -1.203125 C 2.78125 -2.015625 2.359375 -2.9375 2.359375 -3.96875 C 2.359375 -4.820312 2.671875 -5.671875 3.296875 -6.515625 L 28.765625 -39.328125 L 9.34375 -39.328125 C 8.132812 -39.328125 7.148438 -39.679688 6.390625 -40.390625 C 5.628906 -41.109375 5.25 -42.050781 5.25 -43.21875 C 5.25 -44.34375 5.640625 -45.257812 6.421875 -45.96875 C 7.203125 -46.6875 8.175781 -47.046875 9.34375 -47.046875 L 36.828125 -47.046875 C 37.910156 -47.046875 38.910156 -46.664062 39.828125 -45.90625 C 40.742188 -45.144531 41.203125 -44.207031 41.203125 -43.09375 Z M 41.203125 -43.09375 "/></g></g></g><g fill="rgb(97.648621%, 96.469116%, 91.369629%)" fill-opacity="1"><g transform="translate(661.760683, 665.047569)"><g><path d="M 41.9375 -5.25 C 42.164062 -4.664062 42.28125 -4.125 42.28125 -3.625 C 42.28125 -2.457031 41.898438 -1.503906 41.140625 -0.765625 C 40.378906 -0.0234375 39.503906 0.34375 38.515625 0.34375 C 37.710938 0.34375 36.984375 0.0976562 36.328125 -0.390625 C 35.679688 -0.890625 35.175781 -1.566406 34.8125 -2.421875 L 31.328125 -10.546875 L 11.296875 -10.546875 L 7.796875 -2.359375 C 7.484375 -1.503906 7 -0.835938 6.34375 -0.359375 C 5.695312 0.109375 4.992188 0.34375 4.234375 0.34375 C 3.066406 0.34375 2.179688 0.03125 1.578125 -0.59375 C 0.972656 -1.226562 0.671875 -2.082031 0.671875 -3.15625 C 0.671875 -3.5625 0.738281 -3.988281 0.875 -4.4375 L 17.609375 -44.640625 C 17.972656 -45.535156 18.507812 -46.226562 19.21875 -46.71875 C 19.9375 -47.207031 20.742188 -47.410156 21.640625 -47.328125 C 22.453125 -47.328125 23.203125 -47.085938 23.890625 -46.609375 C 24.585938 -46.140625 25.09375 -45.484375 25.40625 -44.640625 Z M 14.59375 -18.28125 L 28.03125 -18.28125 L 21.234375 -34.015625 Z M 14.59375 -18.28125 "/></g></g></g><g fill="rgb(97.648621%, 96.469116%, 91.369629%)" fill-opacity="1"><g transform="translate(233.131273, 754.990105)"><g><path d="M 15.828125 -3.859375 C 16.410156 -3.859375 16.894531 -3.660156 17.28125 -3.265625 C 17.675781 -2.878906 17.875 -2.429688 17.875 -1.921875 C 17.875 -1.359375 17.675781 -0.894531 17.28125 -0.53125 C 16.894531 -0.175781 16.410156 0 15.828125 0 L 4.578125 0 C 3.992188 0 3.503906 -0.191406 3.109375 -0.578125 C 2.710938 -0.972656 2.515625 -1.460938 2.515625 -2.046875 L 2.515625 -21.46875 C 2.515625 -22.050781 2.710938 -22.539062 3.109375 -22.9375 C 3.503906 -23.332031 3.992188 -23.53125 4.578125 -23.53125 L 15.828125 -23.53125 C 16.410156 -23.53125 16.894531 -23.34375 17.28125 -22.96875 C 17.675781 -22.601562 17.875 -22.128906 17.875 -21.546875 C 17.875 -20.984375 17.679688 -20.523438 17.296875 -20.171875 C 16.921875 -19.828125 16.429688 -19.65625 15.828125 -19.65625 L 6.71875 -19.65625 L 6.71875 -13.953125 L 14.3125 -13.953125 C 14.894531 -13.953125 15.382812 -13.765625 15.78125 -13.390625 C 16.175781 -13.023438 16.375 -12.550781 16.375 -11.96875 C 16.375 -11.40625 16.179688 -10.945312 15.796875 -10.59375 C 15.410156 -10.25 14.914062 -10.078125 14.3125 -10.078125 L 6.71875 -10.078125 L 6.71875 -3.859375 Z M 15.828125 -3.859375 "/></g></g></g><g fill="rgb(97.648621%, 96.469116%, 91.369629%)" fill-opacity="1"><g transform="translate(259.412009, 754.990105)"><g><path d="M 22.921875 -23.5625 C 23.484375 -23.5625 23.96875 -23.363281 24.375 -22.96875 C 24.789062 -22.582031 25 -22.097656 25 -21.515625 L 25 -2.046875 C 25 -1.460938 24.804688 -0.972656 24.421875 -0.578125 C 24.046875 -0.191406 23.546875 0 22.921875 0 C 22.296875 0 21.785156 -0.1875 21.390625 -0.5625 C 20.992188 -0.945312 20.796875 -1.441406 20.796875 -2.046875 L 20.796875 -15.59375 L 15.265625 -7.125 C 15.035156 -6.851562 14.773438 -6.632812 14.484375 -6.46875 C 14.191406 -6.300781 13.890625 -6.226562 13.578125 -6.25 C 13.285156 -6.226562 12.992188 -6.300781 12.703125 -6.46875 C 12.410156 -6.632812 12.15625 -6.851562 11.9375 -7.125 L 6.390625 -15.890625 L 6.390625 -2.046875 C 6.390625 -1.441406 6.207031 -0.945312 5.84375 -0.5625 C 5.488281 -0.1875 5.019531 0 4.4375 0 C 3.875 0 3.410156 -0.191406 3.046875 -0.578125 C 2.691406 -0.972656 2.515625 -1.460938 2.515625 -2.046875 L 2.515625 -21.515625 C 2.515625 -22.066406 2.722656 -22.546875 3.140625 -22.953125 C 3.554688 -23.359375 4.054688 -23.5625 4.640625 -23.5625 C 4.972656 -23.5625 5.304688 -23.476562 5.640625 -23.3125 C 5.984375 -23.144531 6.242188 -22.925781 6.421875 -22.65625 L 13.75 -11.390625 L 21.28125 -22.65625 C 21.457031 -22.925781 21.695312 -23.144531 22 -23.3125 C 22.300781 -23.476562 22.609375 -23.5625 22.921875 -23.5625 Z M 22.921875 -23.5625 "/></g></g></g><g fill="rgb(97.648621%, 96.469116%, 91.369629%)" fill-opacity="1"><g transform="translate(293.993614, 754.990105)"><g><path d="M 12.234375 -23.53125 C 13.378906 -23.53125 14.46875 -23.1875 15.5 -22.5 C 16.53125 -21.8125 17.359375 -20.890625 17.984375 -19.734375 C 18.609375 -18.585938 18.921875 -17.332031 18.921875 -15.96875 C 18.921875 -14.625 18.609375 -13.367188 17.984375 -12.203125 C 17.359375 -11.035156 16.53125 -10.109375 15.5 -9.421875 C 14.46875 -8.742188 13.378906 -8.40625 12.234375 -8.40625 L 6.390625 -8.40625 L 6.390625 -2.046875 C 6.390625 -1.441406 6.207031 -0.945312 5.84375 -0.5625 C 5.488281 -0.1875 5.019531 0 4.4375 0 C 3.875 0 3.410156 -0.191406 3.046875 -0.578125 C 2.691406 -0.972656 2.515625 -1.460938 2.515625 -2.046875 L 2.515625 -21.46875 C 2.515625 -22.050781 2.710938 -22.539062 3.109375 -22.9375 C 3.503906 -23.332031 3.992188 -23.53125 4.578125 -23.53125 Z M 12.234375 -12.234375 C 12.660156 -12.234375 13.078125 -12.410156 13.484375 -12.765625 C 13.898438 -13.128906 14.238281 -13.59375 14.5 -14.15625 C 14.757812 -14.726562 14.890625 -15.332031 14.890625 -15.96875 C 14.890625 -16.59375 14.757812 -17.191406 14.5 -17.765625 C 14.238281 -18.335938 13.898438 -18.796875 13.484375 -19.140625 C 13.078125 -19.484375 12.660156 -19.65625 12.234375 -19.65625 L 6.390625 -19.65625 L 6.390625 -12.234375 Z M 12.234375 -12.234375 "/></g></g></g><g fill="rgb(97.648621%, 96.469116%, 91.369629%)" fill-opacity="1"><g transform="translate(321.316157, 754.990105)"><g><path d="M 20.96875 -3.296875 C 21.257812 -3.117188 21.488281 -2.882812 21.65625 -2.59375 C 21.820312 -2.300781 21.90625 -2 21.90625 -1.6875 C 21.90625 -1.28125 21.773438 -0.910156 21.515625 -0.578125 C 21.171875 -0.171875 20.65625 0.03125 19.96875 0.03125 C 19.425781 0.03125 18.929688 -0.09375 18.484375 -0.34375 C 16.867188 -1.257812 16.0625 -3.128906 16.0625 -5.953125 C 16.0625 -6.753906 15.796875 -7.390625 15.265625 -7.859375 C 14.742188 -8.335938 13.988281 -8.578125 13 -8.578125 L 6.71875 -8.578125 L 6.71875 -2.046875 C 6.71875 -1.441406 6.554688 -0.945312 6.234375 -0.5625 C 5.910156 -0.1875 5.476562 0 4.9375 0 C 4.289062 0 3.722656 -0.191406 3.234375 -0.578125 C 2.753906 -0.972656 2.515625 -1.460938 2.515625 -2.046875 L 2.515625 -21.46875 C 2.515625 -22.050781 2.710938 -22.539062 3.109375 -22.9375 C 3.503906 -23.332031 3.992188 -23.53125 4.578125 -23.53125 L 14.25 -23.53125 C 15.414062 -23.53125 16.515625 -23.210938 17.546875 -22.578125 C 18.578125 -21.953125 19.398438 -21.085938 20.015625 -19.984375 C 20.628906 -18.890625 20.9375 -17.660156 20.9375 -16.296875 C 20.9375 -15.179688 20.632812 -14.085938 20.03125 -13.015625 C 19.425781 -11.953125 18.640625 -11.109375 17.671875 -10.484375 C 19.085938 -9.492188 19.863281 -8.171875 20 -6.515625 C 20.0625 -6.160156 20.09375 -5.816406 20.09375 -5.484375 C 20.1875 -4.785156 20.273438 -4.285156 20.359375 -3.984375 C 20.453125 -3.679688 20.65625 -3.453125 20.96875 -3.296875 Z M 14.078125 -12.03125 C 14.484375 -12.03125 14.875 -12.21875 15.25 -12.59375 C 15.632812 -12.976562 15.945312 -13.488281 16.1875 -14.125 C 16.4375 -14.769531 16.5625 -15.460938 16.5625 -16.203125 C 16.5625 -16.828125 16.4375 -17.398438 16.1875 -17.921875 C 15.945312 -18.453125 15.632812 -18.875 15.25 -19.1875 C 14.875 -19.5 14.484375 -19.65625 14.078125 -19.65625 L 6.71875 -19.65625 L 6.71875 -12.03125 Z M 14.078125 -12.03125 "/></g></g></g><g fill="rgb(97.648621%, 96.469116%, 91.369629%)" fill-opacity="1"><g transform="translate(351.461664, 754.990105)"><g><path d="M 15.828125 -3.859375 C 16.410156 -3.859375 16.894531 -3.660156 17.28125 -3.265625 C 17.675781 -2.878906 17.875 -2.429688 17.875 -1.921875 C 17.875 -1.359375 17.675781 -0.894531 17.28125 -0.53125 C 16.894531 -0.175781 16.410156 0 15.828125 0 L 4.578125 0 C 3.992188 0 3.503906 -0.191406 3.109375 -0.578125 C 2.710938 -0.972656 2.515625 -1.460938 2.515625 -2.046875 L 2.515625 -21.46875 C 2.515625 -22.050781 2.710938 -22.539062 3.109375 -22.9375 C 3.503906 -23.332031 3.992188 -23.53125 4.578125 -23.53125 L 15.828125 -23.53125 C 16.410156 -23.53125 16.894531 -23.34375 17.28125 -22.96875 C 17.675781 -22.601562 17.875 -22.128906 17.875 -21.546875 C 17.875 -20.984375 17.679688 -20.523438 17.296875 -20.171875 C 16.921875 -19.828125 16.429688 -19.65625 15.828125 -19.65625 L 6.71875 -19.65625 L 6.71875 -13.953125 L 14.3125 -13.953125 C 14.894531 -13.953125 15.382812 -13.765625 15.78125 -13.390625 C 16.175781 -13.023438 16.375 -12.550781 16.375 -11.96875 C 16.375 -11.40625 16.179688 -10.945312 15.796875 -10.59375 C 15.410156 -10.25 14.914062 -10.078125 14.3125 -10.078125 L 6.71875 -10.078125 L 6.71875 -3.859375 Z M 15.828125 -3.859375 "/></g></g></g><g fill="rgb(97.648621%, 96.469116%, 91.369629%)" fill-opacity="1"><g transform="translate(377.742404, 754.990105)"><g><path d="M 15.828125 -3.859375 C 16.410156 -3.859375 16.894531 -3.660156 17.28125 -3.265625 C 17.675781 -2.878906 17.875 -2.429688 17.875 -1.921875 C 17.875 -1.359375 17.675781 -0.894531 17.28125 -0.53125 C 16.894531 -0.175781 16.410156 0 15.828125 0 L 4.578125 0 C 3.992188 0 3.503906 -0.191406 3.109375 -0.578125 C 2.710938 -0.972656 2.515625 -1.460938 2.515625 -2.046875 L 2.515625 -21.46875 C 2.515625 -22.050781 2.710938 -22.539062 3.109375 -22.9375 C 3.503906 -23.332031 3.992188 -23.53125 4.578125 -23.53125 L 15.828125 -23.53125 C 16.410156 -23.53125 16.894531 -23.34375 17.28125 -22.96875 C 17.675781 -22.601562 17.875 -22.128906 17.875 -21.546875 C 17.875 -20.984375 17.679688 -20.523438 17.296875 -20.171875 C 16.921875 -19.828125 16.429688 -19.65625 15.828125 -19.65625 L 6.71875 -19.65625 L 6.71875 -13.953125 L 14.3125 -13.953125 C 14.894531 -13.953125 15.382812 -13.765625 15.78125 -13.390625 C 16.175781 -13.023438 16.375 -12.550781 16.375 -11.96875 C 16.375 -11.40625 16.179688 -10.945312 15.796875 -10.59375 C 15.410156 -10.25 14.914062 -10.078125 14.3125 -10.078125 L 6.71875 -10.078125 L 6.71875 -3.859375 Z M 15.828125 -3.859375 "/></g></g></g><g fill="rgb(97.648621%, 96.469116%, 91.369629%)" fill-opacity="1"><g transform="translate(404.023143, 754.990105)"><g><path d="M 20.375 -23.53125 C 20.90625 -23.53125 21.335938 -23.347656 21.671875 -22.984375 C 22.015625 -22.628906 22.1875 -22.179688 22.1875 -21.640625 L 22.1875 -2.046875 C 22.1875 -1.460938 21.988281 -0.972656 21.59375 -0.578125 C 21.195312 -0.191406 20.707031 0 20.125 0 C 19.8125 0 19.503906 -0.046875 19.203125 -0.140625 C 18.898438 -0.242188 18.679688 -0.390625 18.546875 -0.578125 L 6.21875 -16.234375 L 6.21875 -1.875 C 6.21875 -1.34375 6.039062 -0.894531 5.6875 -0.53125 C 5.34375 -0.175781 4.890625 0 4.328125 0 C 3.796875 0 3.359375 -0.175781 3.015625 -0.53125 C 2.679688 -0.894531 2.515625 -1.34375 2.515625 -1.875 L 2.515625 -21.46875 C 2.515625 -22.050781 2.710938 -22.539062 3.109375 -22.9375 C 3.503906 -23.332031 3.992188 -23.53125 4.578125 -23.53125 C 4.910156 -23.53125 5.238281 -23.460938 5.5625 -23.328125 C 5.882812 -23.191406 6.125 -23.007812 6.28125 -22.78125 L 18.515625 -7.1875 L 18.515625 -21.640625 C 18.515625 -22.179688 18.6875 -22.628906 19.03125 -22.984375 C 19.382812 -23.347656 19.832031 -23.53125 20.375 -23.53125 Z M 20.375 -23.53125 "/></g></g></g><g fill="rgb(97.648621%, 96.469116%, 91.369629%)" fill-opacity="1"><g transform="translate(435.781781, 754.990105)"><g><path d="M 12.609375 -23.53125 C 14.710938 -23.53125 16.519531 -23.007812 18.03125 -21.96875 C 19.539062 -20.925781 20.691406 -19.515625 21.484375 -17.734375 C 22.285156 -15.953125 22.6875 -13.960938 22.6875 -11.765625 C 22.6875 -9.566406 22.285156 -7.578125 21.484375 -5.796875 C 20.691406 -4.015625 19.539062 -2.601562 18.03125 -1.5625 C 16.519531 -0.519531 14.710938 0 12.609375 0 L 4.578125 0 C 3.992188 0 3.503906 -0.191406 3.109375 -0.578125 C 2.710938 -0.972656 2.515625 -1.460938 2.515625 -2.046875 L 2.515625 -21.46875 C 2.515625 -22.050781 2.710938 -22.539062 3.109375 -22.9375 C 3.503906 -23.332031 3.992188 -23.53125 4.578125 -23.53125 Z M 12.265625 -3.859375 C 14.285156 -3.859375 15.796875 -4.601562 16.796875 -6.09375 C 17.804688 -7.582031 18.3125 -9.472656 18.3125 -11.765625 C 18.3125 -14.046875 17.800781 -15.929688 16.78125 -17.421875 C 15.769531 -18.910156 14.265625 -19.65625 12.265625 -19.65625 L 6.71875 -19.65625 L 6.71875 -3.859375 Z M 12.265625 -3.859375 "/></g></g></g><g fill="rgb(97.648621%, 96.469116%, 91.369629%)" fill-opacity="1"><g transform="translate(466.868283, 754.990105)"><g><path d="M 15.828125 -3.859375 C 16.410156 -3.859375 16.894531 -3.660156 17.28125 -3.265625 C 17.675781 -2.878906 17.875 -2.429688 17.875 -1.921875 C 17.875 -1.359375 17.675781 -0.894531 17.28125 -0.53125 C 16.894531 -0.175781 16.410156 0 15.828125 0 L 4.578125 0 C 3.992188 0 3.503906 -0.191406 3.109375 -0.578125 C 2.710938 -0.972656 2.515625 -1.460938 2.515625 -2.046875 L 2.515625 -21.46875 C 2.515625 -22.050781 2.710938 -22.539062 3.109375 -22.9375 C 3.503906 -23.332031 3.992188 -23.53125 4.578125 -23.53125 L 15.828125 -23.53125 C 16.410156 -23.53125 16.894531 -23.34375 17.28125 -22.96875 C 17.675781 -22.601562 17.875 -22.128906 17.875 -21.546875 C 17.875 -20.984375 17.679688 -20.523438 17.296875 -20.171875 C 16.921875 -19.828125 16.429688 -19.65625 15.828125 -19.65625 L 6.71875 -19.65625 L 6.71875 -13.953125 L 14.3125 -13.953125 C 14.894531 -13.953125 15.382812 -13.765625 15.78125 -13.390625 C 16.175781 -13.023438 16.375 -12.550781 16.375 -11.96875 C 16.375 -11.40625 16.179688 -10.945312 15.796875 -10.59375 C 15.410156 -10.25 14.914062 -10.078125 14.3125 -10.078125 L 6.71875 -10.078125 L 6.71875 -3.859375 Z M 15.828125 -3.859375 "/></g></g></g><g fill="rgb(97.648621%, 96.469116%, 91.369629%)" fill-opacity="1"><g transform="translate(493.149023, 754.990105)"><g><path d="M 12.609375 -23.53125 C 14.710938 -23.53125 16.519531 -23.007812 18.03125 -21.96875 C 19.539062 -20.925781 20.691406 -19.515625 21.484375 -17.734375 C 22.285156 -15.953125 22.6875 -13.960938 22.6875 -11.765625 C 22.6875 -9.566406 22.285156 -7.578125 21.484375 -5.796875 C 20.691406 -4.015625 19.539062 -2.601562 18.03125 -1.5625 C 16.519531 -0.519531 14.710938 0 12.609375 0 L 4.578125 0 C 3.992188 0 3.503906 -0.191406 3.109375 -0.578125 C 2.710938 -0.972656 2.515625 -1.460938 2.515625 -2.046875 L 2.515625 -21.46875 C 2.515625 -22.050781 2.710938 -22.539062 3.109375 -22.9375 C 3.503906 -23.332031 3.992188 -23.53125 4.578125 -23.53125 Z M 12.265625 -3.859375 C 14.285156 -3.859375 15.796875 -4.601562 16.796875 -6.09375 C 17.804688 -7.582031 18.3125 -9.472656 18.3125 -11.765625 C 18.3125 -14.046875 17.800781 -15.929688 16.78125 -17.421875 C 15.769531 -18.910156 14.265625 -19.65625 12.265625 -19.65625 L 6.71875 -19.65625 L 6.71875 -3.859375 Z M 12.265625 -3.859375 "/></g></g></g><g fill="rgb(97.648621%, 96.469116%, 91.369629%)" fill-opacity="1"><g transform="translate(524.235525, 754.990105)"><g><path d="M 24.171875 -11.765625 C 24.171875 -9.546875 23.675781 -7.507812 22.6875 -5.65625 C 21.695312 -3.8125 20.332031 -2.347656 18.59375 -1.265625 C 16.863281 -0.191406 14.910156 0.34375 12.734375 0.34375 C 10.566406 0.34375 8.613281 -0.191406 6.875 -1.265625 C 5.132812 -2.347656 3.773438 -3.8125 2.796875 -5.65625 C 1.828125 -7.507812 1.34375 -9.546875 1.34375 -11.765625 C 1.34375 -13.984375 1.828125 -16.015625 2.796875 -17.859375 C 3.773438 -19.710938 5.132812 -21.175781 6.875 -22.25 C 8.613281 -23.320312 10.566406 -23.859375 12.734375 -23.859375 C 14.910156 -23.859375 16.863281 -23.320312 18.59375 -22.25 C 20.332031 -21.175781 21.695312 -19.710938 22.6875 -17.859375 C 23.675781 -16.015625 24.171875 -13.984375 24.171875 -11.765625 Z M 19.796875 -11.765625 C 19.796875 -13.265625 19.492188 -14.625 18.890625 -15.84375 C 18.285156 -17.0625 17.441406 -18.03125 16.359375 -18.75 C 15.285156 -19.46875 14.078125 -19.828125 12.734375 -19.828125 C 11.367188 -19.828125 10.15625 -19.472656 9.09375 -18.765625 C 8.03125 -18.066406 7.203125 -17.097656 6.609375 -15.859375 C 6.015625 -14.628906 5.71875 -13.265625 5.71875 -11.765625 C 5.71875 -10.265625 6.015625 -8.894531 6.609375 -7.65625 C 7.203125 -6.425781 8.03125 -5.457031 9.09375 -4.75 C 10.15625 -4.050781 11.367188 -3.703125 12.734375 -3.703125 C 14.078125 -3.703125 15.285156 -4.054688 16.359375 -4.765625 C 17.441406 -5.484375 18.285156 -6.453125 18.890625 -7.671875 C 19.492188 -8.898438 19.796875 -10.265625 19.796875 -11.765625 Z M 19.796875 -11.765625 "/></g></g></g><g fill="rgb(97.648621%, 96.469116%, 91.369629%)" fill-opacity="1"><g transform="translate(556.800729, 754.990105)"><g><path d="M 20.96875 -3.296875 C 21.257812 -3.117188 21.488281 -2.882812 21.65625 -2.59375 C 21.820312 -2.300781 21.90625 -2 21.90625 -1.6875 C 21.90625 -1.28125 21.773438 -0.910156 21.515625 -0.578125 C 21.171875 -0.171875 20.65625 0.03125 19.96875 0.03125 C 19.425781 0.03125 18.929688 -0.09375 18.484375 -0.34375 C 16.867188 -1.257812 16.0625 -3.128906 16.0625 -5.953125 C 16.0625 -6.753906 15.796875 -7.390625 15.265625 -7.859375 C 14.742188 -8.335938 13.988281 -8.578125 13 -8.578125 L 6.71875 -8.578125 L 6.71875 -2.046875 C 6.71875 -1.441406 6.554688 -0.945312 6.234375 -0.5625 C 5.910156 -0.1875 5.476562 0 4.9375 0 C 4.289062 0 3.722656 -0.191406 3.234375 -0.578125 C 2.753906 -0.972656 2.515625 -1.460938 2.515625 -2.046875 L 2.515625 -21.46875 C 2.515625 -22.050781 2.710938 -22.539062 3.109375 -22.9375 C 3.503906 -23.332031 3.992188 -23.53125 4.578125 -23.53125 L 14.25 -23.53125 C 15.414062 -23.53125 16.515625 -23.210938 17.546875 -22.578125 C 18.578125 -21.953125 19.398438 -21.085938 20.015625 -19.984375 C 20.628906 -18.890625 20.9375 -17.660156 20.9375 -16.296875 C 20.9375 -15.179688 20.632812 -14.085938 20.03125 -13.015625 C 19.425781 -11.953125 18.640625 -11.109375 17.671875 -10.484375 C 19.085938 -9.492188 19.863281 -8.171875 20 -6.515625 C 20.0625 -6.160156 20.09375 -5.816406 20.09375 -5.484375 C 20.1875 -4.785156 20.273438 -4.285156 20.359375 -3.984375 C 20.453125 -3.679688 20.65625 -3.453125 20.96875 -3.296875 Z M 14.078125 -12.03125 C 14.484375 -12.03125 14.875 -12.21875 15.25 -12.59375 C 15.632812 -12.976562 15.945312 -13.488281 16.1875 -14.125 C 16.4375 -14.769531 16.5625 -15.460938 16.5625 -16.203125 C 16.5625 -16.828125 16.4375 -17.398438 16.1875 -17.921875 C 15.945312 -18.453125 15.632812 -18.875 15.25 -19.1875 C 14.875 -19.5 14.484375 -19.65625 14.078125 -19.65625 L 6.71875 -19.65625 L 6.71875 -12.03125 Z M 14.078125 -12.03125 "/></g></g></g></svg>